<?xml version="1.0" standalone="no"?>
<!DOCTYPE svg PUBLIC "-//W3C//DTD SVG 20010904//EN"
 "http://www.w3.org/TR/2001/REC-SVG-20010904/DTD/svg10.dtd">
<svg version="1.0" xmlns="http://www.w3.org/2000/svg"
 width="900.000000pt" height="878.000000pt" viewBox="0 0 900.000000 878.000000"
 preserveAspectRatio="xMidYMid meet">

<g transform="translate(0.000000,878.000000) scale(0.100000,-0.100000)"
fill="#000000" stroke="none">
<path d="M4977 8248 c-138 -11 -309 -52 -375 -89 -30 -17 -55 -29 -56 -27 -2
2 -13 20 -25 41 l-23 38 -76 -3 c-82 -3 -78 0 -113 -86 l-22 -53 -22 21 -22
20 -46 -25 c-26 -13 -72 -43 -102 -65 -31 -23 -115 -80 -188 -127 -223 -144
-397 -292 -708 -603 -157 -157 -314 -316 -348 -355 -90 -100 -242 -307 -351
-475 -51 -80 -111 -169 -132 -197 -97 -133 -271 -460 -373 -703 -31 -74 -67
-160 -80 -190 -13 -30 -44 -115 -70 -189 -25 -74 -74 -204 -107 -290 -33 -85
-69 -189 -79 -231 -11 -41 -26 -96 -34 -121 -21 -62 -61 -289 -85 -478 -45
-350 -23 -532 137 -1121 60 -221 136 -402 223 -531 85 -124 221 -288 314 -376
l94 -89 -9 -47 c-19 -105 -141 -315 -245 -424 -66 -69 -207 -173 -234 -173
-10 0 -35 -8 -56 -17 l-39 -17 60 -9 c33 -4 130 -6 216 -3 128 5 177 11 274
36 125 32 161 49 290 139 130 90 333 310 407 442 23 42 38 50 38 21 0 -10 18
-90 40 -178 22 -87 40 -171 40 -185 0 -20 -17 -41 -72 -90 -309 -270 -434
-437 -523 -699 -23 -68 -95 -319 -95 -332 0 -3 152 -5 337 -4 l337 1 70 118
c135 224 228 334 373 440 150 111 265 250 297 362 9 32 36 286 46 440 18 273
41 510 51 527 11 22 12 61 1 73 -7 9 -2 161 14 433 l6 92 28 0 c24 0 30 -6 49
-60 30 -86 54 -158 100 -302 22 -69 50 -142 62 -162 13 -22 18 -43 14 -56 -4
-13 8 -49 37 -108 24 -48 61 -134 82 -192 72 -199 306 -685 379 -787 16 -22
57 -64 91 -91 33 -28 72 -60 86 -72 14 -12 52 -43 85 -68 86 -65 110 -88 174
-167 80 -99 175 -246 223 -342 l41 -83 125 0 124 0 -6 27 -6 28 15 -27 16 -28
126 0 126 0 -7 43 c-3 23 -13 89 -21 147 -45 322 -61 385 -135 514 -63 111
-180 227 -376 374 -44 34 -86 67 -91 74 -12 15 -43 162 -67 318 -25 161 -55
332 -83 475 -15 72 -26 143 -25 159 1 17 -5 37 -12 45 -13 15 -28 81 -18 81 2
0 16 -8 30 -18 64 -45 221 -110 316 -132 l70 -15 46 -135 c70 -207 135 -322
286 -510 89 -111 174 -196 299 -295 154 -122 282 -190 428 -226 88 -22 121
-20 65 4 -55 23 -150 90 -186 131 -91 104 -114 314 -53 489 44 127 97 195 326
422 163 161 204 208 272 311 87 132 155 252 199 356 15 37 30 66 31 64 3 -3
-15 -64 -103 -351 -36 -120 -60 -236 -84 -406 -11 -85 -25 -178 -30 -208 -6
-30 -8 -56 -6 -58 4 -5 56 104 56 117 0 8 24 62 88 200 43 94 180 424 207 500
26 73 90 296 100 350 3 19 13 64 21 100 43 198 53 464 29 762 -21 259 -62 439
-153 673 -139 359 -277 676 -353 811 -59 104 -86 163 -160 344 -94 234 -120
309 -135 387 -8 44 -19 96 -25 115 -5 18 -21 123 -35 233 -13 110 -27 207 -29
215 -3 8 -9 98 -15 200 -17 285 -47 395 -151 545 -63 92 -106 135 -141 142
-18 3 -30 13 -33 27 -3 11 -9 42 -15 67 -19 93 -21 95 -102 108 -114 20 -117
18 -146 -66 -13 -40 -27 -73 -30 -73 -4 0 -17 15 -29 33 -34 49 -156 171 -231
230 -129 101 -177 127 -311 167 -74 22 -194 24 -404 8z m428 -33 c96 -33 188
-83 215 -116 3 -3 19 -13 35 -22 39 -21 162 -140 170 -167 3 -11 10 -18 15
-15 4 3 14 -3 21 -13 13 -15 12 -16 -3 -3 -10 7 -18 10 -18 7 0 -14 34 -71 49
-84 9 -8 10 -11 3 -7 -8 4 -7 -5 4 -29 10 -19 21 -33 26 -30 4 3 3 14 -3 25
-6 12 -8 23 -5 27 3 3 -1 14 -11 24 -9 10 -14 18 -11 18 2 0 15 -12 29 -27 13
-14 18 -23 12 -19 -16 9 -16 1 -3 -24 7 -13 7 -21 0 -25 -5 -3 -10 -14 -10
-25 0 -10 -14 -57 -32 -105 -24 -67 -34 -83 -39 -69 -4 10 -8 13 -8 6 -1 -7 6
-26 14 -41 17 -34 35 -81 80 -216 l34 -100 -40 45 c-22 25 -47 58 -55 73 -8
15 -19 25 -25 21 -6 -4 -5 -11 3 -21 11 -14 22 -51 11 -40 -2 3 -3 7 -1 9 2 2
-9 19 -24 37 -19 21 -28 44 -28 66 0 19 -4 36 -9 40 -6 3 -9 -86 -9 -222 1
-126 -3 -248 -7 -273 -5 -25 -8 -50 -7 -57 2 -6 -1 -14 -5 -16 -5 -3 -9 17 -9
45 -1 29 2 44 7 37 5 -8 7 0 5 19 -1 18 -7 37 -12 42 -9 9 -13 -140 -4 -162 4
-12 7 -72 3 -80 -2 -3 -5 -53 -7 -110 -3 -56 -9 -116 -14 -133 -8 -29 -9 -28
-47 50 -30 62 -170 312 -213 381 -19 31 -49 73 -78 109 -17 22 -62 85 -99 140
-38 55 -73 105 -78 110 -29 28 131 -214 166 -252 24 -27 21 -27 -58 -8 -78 19
-145 19 -173 -1 -21 -14 -22 -14 -22 10 0 14 -1 29 -2 34 -2 4 17 10 42 13
l45 6 -52 1 c-53 2 -53 2 -53 35 0 17 -5 48 -10 67 -6 19 -17 80 -25 135 -8
55 -17 116 -21 135 -7 39 -7 39 55 -37 41 -51 46 -73 15 -73 -8 0 -14 -5 -14
-11 0 -7 11 -8 30 -4 24 5 35 2 51 -17 19 -22 20 -22 10 -1 -15 30 -15 31 22
36 29 3 28 4 -9 5 -37 2 -43 6 -84 65 -77 111 -135 186 -144 187 -4 0 -5 -7
-2 -16 21 -55 58 -219 61 -273 2 -35 9 -69 15 -75 5 -5 10 -15 10 -21 0 -5 -5
-3 -11 5 -7 11 -9 6 -5 -21 3 -20 8 -69 11 -109 3 -41 11 -80 18 -89 6 -8 7
-12 2 -9 -11 7 -13 -37 -3 -47 3 -3 18 1 34 10 39 20 40 20 36 -22 -1 -21 1
-65 6 -98 9 -55 10 -57 11 -18 0 23 6 45 11 48 6 3 10 5 10 3 12 -93 31 -131
69 -136 35 -5 69 23 77 64 3 19 14 38 23 42 9 3 19 10 23 16 12 18 9 -11 -8
-78 -24 -96 -33 -105 -106 -108 l-63 -3 47 -9 c71 -12 95 4 129 89 19 47 33
69 43 67 8 -1 22 11 32 27 24 40 32 31 24 -25 -5 -30 -2 -69 6 -107 16 -67 14
-71 -51 -128 -96 -83 -298 -194 -426 -234 l-57 -18 -98 48 c-150 72 -271 143
-292 170 -10 13 -34 70 -51 126 -34 105 -34 122 -8 244 2 11 0 36 -6 55 -8 31
-7 36 19 57 38 30 41 29 36 -11 -4 -33 23 -184 34 -195 3 -3 3 16 -1 43 -6 35
-5 47 4 42 6 -4 11 -18 11 -31 0 -27 46 -75 70 -75 23 0 40 20 40 47 0 13 5
23 10 23 14 0 12 -104 -2 -118 -19 -19 -63 -14 -83 8 -10 11 -23 20 -28 20 -6
0 0 -11 13 -25 17 -18 34 -25 61 -25 55 0 61 14 57 132 l-3 103 -50 51 c-32
32 -69 58 -102 70 l-50 19 31 103 c17 57 34 104 39 104 4 0 30 -2 58 -6 l50
-7 56 -87 c30 -48 60 -91 66 -97 6 -5 2 4 -8 20 -10 17 -33 55 -50 85 -17 30
-54 91 -81 135 -28 44 -53 88 -57 98 -16 44 -24 27 -93 -233 -18 -69 -33 -121
-34 -117 0 10 -50 -50 -67 -80 -9 -16 -10 -30 -3 -49 6 -14 8 -29 5 -34 -3 -4
2 -13 10 -20 8 -7 15 -22 15 -34 -1 -17 -3 -16 -15 9 -7 17 -14 26 -15 20 -1
-5 -3 -19 -6 -30 -2 -11 -6 -38 -9 -60 -2 -22 -7 -65 -11 -95 -9 -79 -12 -106
-19 -185 -3 -38 -8 -76 -11 -84 -2 -7 0 -19 5 -25 6 -6 6 -17 2 -24 -10 -17
-48 32 -91 116 -46 90 -130 321 -119 328 5 3 21 28 35 56 21 41 25 59 19 95
-7 47 -40 128 -55 138 -27 17 8 191 66 329 19 44 32 81 30 84 -5 4 -79 -122
-89 -151 -4 -11 -12 -15 -18 -11 -8 4 -9 3 -5 -4 4 -7 -4 -34 -17 -62 -20 -41
-25 -47 -30 -30 -3 12 -1 18 5 14 6 -4 8 1 3 15 -5 17 -3 20 11 14 13 -5 15
-2 9 17 -5 15 -4 20 4 16 7 -5 9 -1 5 9 -4 9 -8 15 -9 13 -4 -5 -65 -118 -86
-159 -16 -32 -24 -37 -58 -41 -36 -3 -40 -1 -36 17 2 11 11 55 19 98 9 43 20
86 26 97 5 10 10 25 10 32 -1 23 -29 -35 -50 -104 -11 -36 -40 -109 -65 -162
l-45 -97 -25 17 c-37 24 -57 12 -53 -33 2 -31 0 -37 -14 -35 -13 2 -17 -6 -20
-35 -4 -51 -32 -57 -53 -11 -8 19 -12 23 -9 9 4 -14 1 -27 -6 -31 -7 -5 -14
-40 -16 -91 -3 -72 -6 -84 -22 -87 -12 -2 -24 10 -40 40 l-22 43 0 -46 c0 -75
-43 -94 -65 -28 -13 36 -34 41 -65 14 -8 -7 -42 -27 -74 -45 -33 -18 -80 -47
-105 -65 -25 -17 -72 -46 -103 -64 -32 -18 -58 -35 -58 -37 0 -3 9 0 21 6 25
14 27 12 35 -27 5 -25 2 -33 -14 -42 -17 -9 -23 -8 -32 6 -9 15 -10 14 -5 -7
4 -14 16 -33 27 -42 18 -16 23 -16 48 -3 16 8 35 15 43 15 7 0 45 15 83 34
113 54 114 54 114 6 0 -23 -4 -39 -9 -35 -15 9 -39 -34 -33 -58 5 -20 6 -20
12 -1 4 10 5 26 3 34 -4 13 -4 13 7 0 10 -13 11 -12 6 4 -6 16 -4 17 9 6 18
-15 20 -31 3 -28 -8 2 -13 -6 -12 -19 0 -15 -5 -20 -18 -18 -20 4 -22 -3 -8
-25 8 -13 10 -13 10 -1 0 11 4 10 14 -4 10 -14 11 -24 3 -36 -10 -16 -12 -15
-30 5 -18 20 -18 20 -12 1 4 -11 8 -27 10 -35 2 -8 4 -15 5 -15 1 0 3 -8 5
-18 2 -11 0 -16 -3 -12 -4 4 -8 11 -8 16 -1 5 -2 10 -4 12 -3 4 -11 40 -15 72
-3 18 -2 25 3 17 6 -8 9 -2 9 18 0 16 -1 29 -3 28 -1 -2 -32 -61 -69 -133 -37
-71 -75 -136 -83 -142 -14 -12 -14 -13 1 -13 9 0 17 3 17 8 0 4 10 7 23 7 12
1 35 4 50 8 19 5 27 4 22 -3 -3 -5 -14 -10 -25 -10 -10 0 -52 -17 -93 -38 -41
-21 -110 -52 -153 -69 -44 -17 -133 -52 -199 -78 -66 -26 -145 -57 -175 -68
-30 -12 -48 -23 -39 -25 17 -3 102 18 234 57 39 12 99 29 135 40 36 10 106 31
155 46 50 16 105 30 123 33 18 2 34 8 37 12 3 5 -5 6 -17 2 -16 -4 -19 -2 -13
9 29 48 84 134 125 194 25 39 49 77 53 87 3 9 -3 39 -14 67 -10 28 -19 75 -19
105 0 47 3 54 23 59 30 7 208 74 230 87 9 6 43 20 75 31 31 11 74 27 95 36 46
20 55 13 29 -24 -24 -35 -49 -113 -58 -181 -4 -32 -17 -68 -33 -91 -65 -93
-128 -188 -139 -211 -31 -60 -35 -63 -182 -115 -58 -20 -111 -44 -117 -53 -10
-12 -13 -13 -13 -2 0 11 -3 10 -12 -2 -7 -9 -35 -23 -63 -31 -27 -8 -122 -39
-210 -70 -245 -84 -466 -122 -457 -79 1 8 -2 11 -8 7 -6 -4 -5 -16 4 -33 8
-16 20 -75 26 -132 7 -58 18 -118 25 -135 8 -16 17 -43 20 -58 7 -26 10 -28
45 -22 42 7 44 5 55 -43 6 -28 3 -33 -17 -41 l-23 -10 25 0 c22 -1 26 -6 28
-35 2 -26 -2 -36 -15 -40 -15 -4 100 0 117 4 3 1 -5 5 -17 10 -19 8 -23 17
-23 49 0 22 -5 41 -11 43 -6 2 -12 18 -13 37 -2 26 2 35 21 42 29 11 29 16 1
15 -18 -1 -24 5 -26 25 -2 21 2 28 23 33 37 9 48 -1 42 -40 -3 -18 -2 -34 3
-36 13 -5 20 -67 8 -74 -7 -4 -4 -10 6 -16 9 -5 16 -22 16 -41 0 -18 4 -47 9
-65 8 -27 7 -34 -10 -42 -10 -6 -25 -10 -32 -9 -6 1 -49 -1 -94 -6 -75 -7 -83
-10 -83 -29 0 -17 2 -18 10 -6 10 17 198 42 215 29 15 -12 17 -60 3 -77 -11
-13 -11 -14 0 -8 18 11 36 -42 21 -60 -7 -9 -7 -14 -1 -14 14 0 21 -48 8 -59
-6 -4 -23 -6 -38 -4 -16 2 -28 -1 -28 -7 0 -6 17 -9 43 -7 41 3 42 2 43 -28
l0 -30 -69 0 c-38 0 -74 -3 -79 -7 -8 -4 -6 -26 5 -68 8 -34 12 -58 8 -54 -10
11 -27 60 -35 97 -4 15 -13 27 -22 27 -11 0 -15 8 -12 30 1 17 -2 34 -8 38 -6
4 -14 14 -18 22 -3 8 -4 4 -1 -10 3 -14 12 -58 21 -99 8 -40 16 -87 16 -105 1
-34 -11 -239 -15 -242 -1 -1 -56 -8 -122 -14 -114 -11 -137 -19 -130 -44 2 -6
6 -47 9 -91 3 -44 15 -132 25 -194 11 -63 18 -118 16 -122 -3 -3 -28 -9 -56
-12 -28 -4 -53 -8 -55 -10 -2 -2 0 -17 5 -33 5 -16 21 -83 36 -149 35 -157 97
-355 112 -355 2 0 15 7 28 16 13 9 29 13 35 9 5 -3 10 -39 10 -78 0 -81 15
-167 53 -307 23 -83 60 -294 56 -317 -1 -4 0 -10 1 -13 3 -7 8 -57 11 -98 1
-18 6 -35 11 -38 4 -3 8 -13 7 -22 0 -15 -1 -15 -8 1 -4 10 -7 -33 -7 -95 -2
-176 -22 -417 -48 -550 -8 -41 -9 -65 -3 -61 6 4 7 1 1 -8 -5 -8 -10 -25 -11
-39 -2 -14 -10 -56 -18 -95 -8 -38 -17 -81 -20 -94 -2 -13 -9 -39 -15 -57 -6
-19 -8 -39 -4 -45 4 -8 3 -9 -4 -5 -10 6 -18 -8 -10 -16 9 -9 -86 -141 -146
-205 -22 -24 -36 -46 -32 -50 8 -8 25 11 125 142 71 93 117 177 168 305 37 91
48 142 68 301 15 122 20 144 29 118 20 -62 54 -224 50 -242 -2 -12 -7 -35 -10
-52 -3 -16 -16 -51 -28 -77 -13 -27 -21 -46 -17 -43 4 2 8 -2 8 -9 0 -8 -7
-12 -14 -9 -8 3 -13 2 -12 -3 2 -5 -7 -29 -19 -54 -11 -25 -22 -52 -24 -60 -2
-8 -5 -17 -8 -20 -3 -3 -22 -31 -43 -62 -56 -83 -256 -262 -274 -245 -3 4 -25
-11 -49 -32 -84 -74 -263 -121 -489 -128 l-160 -5 49 32 c65 42 173 130 212
171 81 87 203 305 231 412 28 111 5 300 -56 455 -10 26 -33 83 -51 127 -38 92
-116 316 -136 390 -8 28 -23 83 -34 123 -31 116 -69 373 -79 537 l-10 150 4
-195 c4 -192 4 -195 -15 -172 -10 12 -17 31 -15 42 2 11 0 22 -4 25 -5 2 -8
-3 -7 -13 0 -9 -3 -18 -9 -19 -5 -2 -10 6 -10 16 0 11 -3 22 -6 25 -10 10 1
-230 13 -285 2 -7 13 -33 26 -58 12 -24 20 -46 18 -48 -2 -2 -26 40 -54 94
-84 164 -131 387 -148 708 -4 72 -8 140 -8 152 -1 12 -4 25 -8 28 -3 3 -4 -16
-2 -42 3 -38 13 -407 16 -580 0 -18 4 -31 7 -28 4 2 7 -8 8 -23 l2 -27 -10 24
c-5 13 -11 22 -14 19 -8 -7 11 -63 21 -60 5 1 10 -10 10 -25 1 -16 3 -28 4
-28 1 0 3 -11 6 -25 3 -19 2 -21 -6 -10 -5 8 -10 13 -11 10 0 -3 -2 -13 -4
-22 -2 -9 4 -23 13 -30 13 -11 15 -10 9 5 -4 10 -3 16 2 12 5 -3 8 -20 7 -38
-2 -17 1 -41 6 -52 8 -18 8 -19 -5 -3 -8 10 -17 15 -20 12 -7 -8 -3 18 6 32 3
6 -2 19 -12 28 -11 10 -18 25 -16 34 1 9 -2 23 -8 30 -6 7 -6 12 -1 10 5 -2 9
1 9 7 0 5 -3 9 -7 8 -4 -2 -4 5 -1 14 4 10 2 14 -4 10 -7 -5 -9 5 -6 27 3 21
-1 39 -10 48 -8 8 -15 28 -15 44 -1 16 -4 45 -7 64 l-6 35 15 -39 c8 -22 12
-44 9 -49 -4 -6 -1 -7 7 -2 9 6 11 4 5 -5 -5 -9 -4 -11 4 -6 6 4 8 12 5 18 -4
6 -7 26 -6 44 1 18 -3 36 -8 39 -6 3 -10 11 -10 16 0 6 5 7 11 3 8 -5 8 -1 0
13 -6 11 -7 24 -3 28 4 5 2 5 -4 2 -14 -8 -41 22 -39 43 0 8 7 14 14 12 8 -1
10 2 5 10 -9 15 -14 33 -17 65 -2 12 -5 25 -9 28 -8 8 -3 -50 6 -63 3 -6 2
-13 -3 -16 -9 -6 -7 -77 4 -131 3 -16 8 -58 12 -92 3 -35 10 -63 14 -63 5 0 9
-5 9 -11 0 -5 -5 -7 -11 -3 -8 4 -8 1 -2 -12 9 -17 20 -65 38 -159 3 -16 8
-37 10 -45 2 -8 4 -21 4 -28 1 -7 5 -11 10 -8 4 3 19 -6 32 -21 13 -14 18 -23
11 -19 -15 9 -16 -6 0 -22 7 -7 8 -12 4 -12 -5 0 -3 -7 4 -15 7 -8 9 -15 5
-15 -4 0 -2 -7 5 -15 7 -8 10 -15 7 -15 -9 0 77 -237 112 -310 61 -128 128
-236 269 -433 74 -103 112 -164 110 -178 -2 -17 -22 -1 -103 83 -340 349 -439
540 -578 1108 -78 320 -86 361 -98 494 -12 142 -1 303 36 526 14 85 31 184 36
220 6 36 16 81 24 102 8 20 23 74 35 120 11 45 52 164 90 263 37 99 82 221 98
272 28 83 95 251 175 438 79 186 266 536 336 630 21 28 95 138 166 245 215
327 327 457 761 881 270 264 396 370 603 506 78 52 171 115 205 140 33 25 78
54 98 64 l37 19 20 -26 c26 -33 26 -36 1 -102 -27 -71 -25 -78 11 -47 33 27
106 67 147 80 13 4 50 33 83 66 98 98 196 136 449 172 14 2 111 3 215 2 150
-2 200 -6 240 -20z m-946 -42 c-12 -14 -12 -15 0 -9 8 6 7 0 -4 -18 -10 -14
-14 -26 -10 -26 5 0 0 -10 -11 -22 -12 -13 -13 -18 -4 -13 8 5 0 -8 -17 -28
-18 -21 -33 -41 -33 -46 0 -4 -11 -13 -25 -19 -22 -10 -25 -9 -31 12 -8 34 -1
84 20 139 l19 47 55 0 c50 0 53 -1 41 -17z m1655 -243 l26 -9 -32 -88 c-17
-48 -40 -103 -50 -122 -11 -18 -17 -40 -14 -48 3 -8 2 -12 -3 -9 -9 6 -42
-100 -45 -142 -1 -29 -36 -39 -76 -22 -32 13 -33 27 -7 90 6 14 9 29 9 33 -1
4 4 20 12 35 7 15 11 33 9 40 -3 6 0 12 7 12 6 0 9 4 6 9 -8 13 4 42 15 35 5
-3 6 2 3 10 -3 9 -1 16 5 16 6 0 8 7 5 15 -4 8 -2 15 4 15 5 0 13 7 16 16 4
10 2 13 -7 8 -6 -4 -3 2 7 14 10 12 19 35 20 51 1 19 5 27 14 23 7 -2 12 -1
11 4 -5 27 19 32 65 14z m184 -216 c38 -22 127 -150 174 -250 26 -57 44 -114
54 -171 17 -105 29 -305 20 -329 -6 -16 -8 -15 -28 2 -12 11 -18 13 -13 4 5
-8 9 -41 10 -75 2 -78 14 -189 26 -240 9 -37 18 -84 21 -112 1 -7 5 -10 10 -7
5 3 7 -6 4 -20 -3 -14 0 -28 5 -32 5 -3 7 -10 3 -15 -3 -5 -1 -15 4 -22 5 -7
8 -22 7 -34 -1 -12 2 -20 7 -17 4 3 8 -3 9 -13 1 -26 6 -45 18 -73 l12 -25 -6
25 c-3 14 -8 36 -11 50 -3 14 -8 34 -11 45 -11 33 -12 45 -3 45 4 0 11 -21 15
-47 5 -27 10 -52 11 -58 14 -46 26 -108 30 -150 5 -54 11 -100 14 -100 2 0 11
-37 12 -52 1 -7 5 -10 9 -7 4 2 7 13 6 24 -1 10 -4 17 -7 15 -4 -2 -7 2 -7 10
0 17 16 21 18 5 3 -21 5 -26 23 -64 12 -25 15 -41 8 -48 -7 -7 -14 -3 -22 12
-8 15 -8 20 -1 16 13 -8 14 4 2 22 -16 26 -20 -14 -6 -54 8 -22 14 -47 15 -56
0 -9 4 -19 9 -23 12 -7 8 35 -4 55 -7 13 -6 13 10 0 17 -14 18 -13 12 3 -4 11
-3 16 4 12 6 -4 8 -13 5 -21 -3 -7 -1 -16 4 -19 6 -4 10 -11 10 -18 0 -6 -7
-2 -16 9 -15 18 -15 18 -10 0 4 -10 2 -24 -3 -30 -11 -13 28 -107 57 -140 9
-10 16 -20 14 -22 -1 -3 1 -12 6 -20 8 -15 10 -15 15 0 3 8 2 18 -4 21 -5 4
-6 11 -3 17 4 7 2 8 -4 4 -8 -5 -12 2 -13 18 -2 42 -4 46 -14 44 -5 -2 -9 -7
-7 -11 1 -5 -2 -6 -8 -2 -7 5 -8 11 -1 19 12 14 8 53 -5 46 -5 -3 -8 -14 -6
-24 1 -11 -1 -17 -4 -13 -11 10 -13 58 -3 51 5 -3 9 1 9 8 1 9 3 9 9 -2 5 -8
9 -17 8 -20 0 -3 6 -16 13 -30 8 -14 15 -28 16 -32 1 -5 3 -10 4 -13 1 -3 3
-8 4 -12 5 -20 157 -304 176 -328 6 -8 35 -74 115 -260 7 -16 32 -75 56 -130
97 -227 182 -460 213 -585 28 -112 59 -280 65 -355 13 -141 13 -408 1 -540
-12 -135 -61 -397 -87 -465 -10 -25 -16 -49 -14 -55 1 -5 -1 -7 -5 -2 -4 4
-15 0 -24 -8 -16 -14 -17 -13 -15 12 3 46 4 48 20 27 8 -10 15 -14 15 -7 0 6
-5 15 -10 18 -8 5 -8 11 0 20 8 10 8 15 -2 21 -7 4 -10 3 -5 -1 4 -5 -1 -17
-10 -27 -9 -10 -19 -33 -21 -51 -2 -18 -5 -43 -7 -57 -2 -14 -7 -44 -10 -68
-3 -24 -10 -53 -15 -66 -5 -15 -5 -27 2 -34 7 -7 6 -16 -1 -29 -10 -16 -11
-15 -5 7 3 14 3 21 -2 17 -4 -4 -9 -20 -10 -35 -1 -15 -14 -63 -30 -107 -30
-87 -203 -487 -204 -470 0 29 21 190 35 260 29 144 86 353 156 570 30 96 60
242 78 391 12 103 14 366 2 434 -6 30 -8 -9 -7 -115 1 -169 -9 -297 -25 -327
-5 -10 -7 -18 -3 -18 3 0 1 -6 -5 -13 -6 -8 -7 -18 -3 -22 4 -5 -1 -5 -10 -2
-11 4 -21 0 -27 -11 -7 -11 -11 -12 -11 -4 0 7 -5 10 -11 7 -7 -5 -5 -13 6
-25 11 -12 13 -20 5 -25 -5 -3 -7 -11 -4 -17 4 -7 2 -8 -5 -4 -8 6 -9 12 -2
20 8 9 4 19 -14 36 -29 27 -34 17 -7 -14 17 -21 17 -21 -4 -4 -16 14 -23 15
-34 5 -12 -10 -12 -9 -1 5 7 9 10 21 7 26 -3 5 8 8 24 7 17 -1 33 1 36 6 3 5
9 7 14 4 4 -3 5 5 2 17 -5 19 -7 20 -10 5 -2 -9 -8 -15 -13 -11 -5 3 -6 11 -3
17 4 7 4 9 -1 5 -4 -4 -14 -3 -22 4 -8 6 -13 7 -12 2 1 -5 1 -18 -1 -29 l-1
-20 -9 20 c-6 14 -9 15 -10 5 -1 -8 -4 -24 -6 -35 -3 -11 -6 -28 -8 -37 -1
-10 -5 -21 -9 -24 -4 -4 -2 -13 4 -21 6 -7 8 -13 4 -13 -4 0 -2 -6 4 -14 9
-11 9 -16 0 -22 -7 -4 -9 -3 -5 4 3 6 2 13 -4 17 -6 4 -7 12 -4 18 4 7 3 8 -2
4 -5 -5 -9 -12 -10 -15 0 -4 -3 -14 -6 -22 -11 -29 -39 -115 -52 -160 -7 -25
-19 -57 -26 -70 -7 -14 -13 -27 -12 -30 0 -3 -8 -25 -19 -50 -24 -53 -34 -94
-20 -86 11 7 9 -20 -3 -31 -4 -4 -6 -1 -4 7 2 9 -3 14 -11 12 -9 -2 -11 3 -7
13 11 30 46 216 57 306 19 161 13 475 -11 569 -8 31 -9 29 -4 -15 3 -27 7
-124 11 -214 4 -136 3 -162 -8 -155 -12 7 -12 5 0 -9 10 -13 11 -24 2 -48 -6
-17 -8 -42 -5 -54 3 -13 2 -25 -3 -28 -11 -7 -10 74 0 91 6 8 3 20 -7 31 -9
10 -14 20 -11 23 3 2 -2 5 -10 5 -12 0 -11 -5 5 -22 28 -30 25 -43 -4 -16 -21
20 -23 20 -22 4 0 -10 -3 -19 -9 -20 -5 -2 -10 6 -10 16 0 11 -3 22 -6 26 -4
3 -6 -2 -5 -12 0 -10 -3 -18 -9 -18 -5 0 -9 3 -8 6 1 3 -5 6 -13 6 -12 0 -11
-3 2 -18 9 -10 17 -29 18 -44 1 -23 2 -24 14 -8 9 13 12 14 12 2 0 -12 2 -12
9 0 5 8 16 16 25 17 12 2 14 -2 6 -15 -6 -11 -5 -22 1 -29 5 -7 6 -10 3 -7 -4
3 -13 0 -21 -6 -11 -10 -11 -15 -1 -28 12 -14 11 -14 -4 -3 -10 8 -16 17 -15
20 1 4 -2 8 -8 10 -13 3 -14 -49 -1 -68 9 -13 9 -13 -6 -2 -10 8 -15 22 -12
38 3 15 1 23 -5 20 -5 -4 -13 -2 -16 4 -5 8 -12 7 -23 -2 -15 -11 -15 -11 -5
3 7 9 11 18 8 21 -3 3 2 11 12 19 14 12 16 12 8 0 -5 -9 -4 -12 3 -8 12 8 5
42 -12 57 -9 7 -13 6 -13 -3 0 -6 -4 -25 -7 -42 -4 -16 -9 -48 -12 -70 -9 -67
-11 -78 -24 -125 -7 -25 -14 -53 -16 -62 -7 -31 -13 -52 -28 -101 -8 -26 -12
-47 -9 -47 3 0 1 -6 -4 -12 -6 -7 -16 -31 -23 -53 -7 -22 -17 -46 -23 -52 -5
-7 -6 -13 -2 -13 4 0 2 -7 -5 -15 -7 -8 -10 -22 -6 -30 3 -9 2 -14 -3 -11 -5
3 -14 -7 -19 -22 -41 -103 -61 -166 -55 -175 3 -5 2 -7 -4 -4 -12 8 -76 -129
-67 -145 4 -6 3 -8 -3 -5 -13 8 -26 -20 -16 -35 4 -7 1 -8 -7 -3 -10 6 -12 3
-8 -13 4 -12 1 -25 -4 -29 -7 -4 -8 -1 -3 8 6 11 5 12 -6 1 -11 -11 -11 -16 0
-35 13 -20 13 -21 -1 -9 -13 11 -19 7 -37 -23 -11 -20 -21 -42 -21 -48 0 -7
-10 -30 -23 -52 -86 -151 -118 -344 -81 -489 21 -83 52 -133 121 -196 64 -59
57 -59 -64 -5 -97 45 -176 100 -252 178 -36 36 -68 64 -73 61 -4 -3 -5 1 -3 8
7 17 -39 80 -50 70 -5 -4 -5 -2 -2 4 4 6 -7 36 -23 66 -62 115 -176 399 -195
487 -22 100 -45 224 -43 226 2 1 27 5 56 9 49 6 52 6 53 -16 2 -60 10 -102 21
-116 8 -10 9 -13 1 -9 -7 5 -10 1 -8 -10 2 -10 6 -44 10 -75 4 -32 12 -55 16
-52 5 3 6 10 3 16 -5 7 -2 8 5 4 9 -6 9 -12 -3 -25 -13 -14 -13 -20 -3 -31 9
-9 9 -11 0 -6 -7 4 -3 -20 11 -61 24 -72 63 -151 70 -143 2 3 14 -4 27 -15
l24 -20 -17 21 c-14 15 -15 23 -6 32 8 8 15 8 24 1 8 -7 14 -7 19 1 4 6 1 9
-6 8 -6 -2 -14 3 -17 11 -2 8 0 11 5 8 5 -3 10 0 10 8 0 8 -4 12 -9 9 -4 -3
-8 1 -9 8 -2 43 -11 83 -20 95 -6 7 -9 13 -6 13 4 0 0 18 -8 40 -8 22 -12 40
-9 40 3 0 2 6 -3 12 -4 7 -8 16 -9 21 -1 4 -3 9 -4 12 -4 8 -7 24 -9 41 -1 9
-6 12 -13 8 -10 -6 -10 -5 -1 7 14 17 11 46 -8 81 -7 13 -12 24 -11 26 1 1 2
9 2 18 0 9 -5 12 -12 8 -9 -5 -9 -2 1 9 10 13 11 20 2 31 -10 11 -7 18 15 33
14 10 43 32 63 50 l36 31 -1 89 c-1 102 -25 184 -79 269 -55 85 -61 89 -140
89 l-70 0 -3 49 c-3 44 -1 48 12 37 10 -8 16 -9 16 -3 0 6 -4 13 -9 17 -6 3
-7 15 -4 28 3 12 9 56 13 97 15 145 66 404 105 535 3 11 -3 1 -14 -22 -11 -24
-23 -59 -27 -78 -5 -31 -8 -34 -23 -23 -13 10 -14 10 -3 -2 13 -16 16 -50 4
-50 -4 0 -14 6 -22 13 -8 6 -7 3 3 -9 18 -22 23 -49 8 -39 -5 3 -12 1 -16 -5
-4 -6 -9 -8 -13 -6 -4 2 -8 -37 -9 -87 -2 -51 -5 -141 -9 -202 -3 -60 -6 -116
-7 -122 -1 -21 -19 -15 -74 22 -29 19 -58 35 -65 35 -7 0 14 -17 47 -38 l60
-37 -59 -13 c-33 -7 -63 -9 -68 -4 -4 4 -10 28 -12 53 -3 45 -7 51 -28 45 -38
-12 -111 -26 -114 -23 -6 6 -23 101 -19 106 2 1 18 -4 35 -13 25 -12 29 -12
20 -1 -13 16 -9 54 21 215 32 167 60 281 70 278 4 -2 39 -30 76 -64 37 -33 78
-66 89 -72 20 -11 22 -9 27 21 3 17 9 76 13 130 3 53 7 97 8 97 5 0 190 68
326 119 176 66 329 138 337 159 3 6 11 12 18 12 18 0 35 54 35 111 0 27 -11
90 -24 141 -13 51 -29 120 -36 153 -7 33 -33 121 -58 195 -25 74 -55 171 -68
215 -48 172 -94 278 -94 217 0 -10 -4 -22 -8 -28 -5 -5 -21 -40 -36 -79 -53
-133 -80 -195 -86 -195 -14 0 -78 271 -84 357 -6 75 -18 82 -15 8 2 -51 39
-253 64 -347 4 -16 3 -28 -2 -28 -21 0 -83 254 -83 341 0 52 -13 49 -35 -7 -9
-25 -21 -42 -25 -37 -11 13 -50 197 -50 237 0 37 -27 72 -105 137 l-40 33 33
-35 c23 -25 32 -44 32 -69 l0 -34 -75 74 c-41 41 -80 77 -87 79 -7 2 22 -29
65 -69 42 -39 89 -91 103 -115 25 -43 25 -44 8 -100 -19 -66 -43 -111 -93
-175 -54 -69 -182 -210 -191 -210 -4 0 -10 10 -13 23 -3 12 -19 69 -36 127
-17 58 -36 123 -42 145 -19 66 -109 334 -146 430 -19 50 -36 113 -38 141 -3
28 -9 64 -16 80 -13 34 -13 92 0 125 5 13 10 18 10 12 1 -7 9 -13 19 -13 11 0
7 7 -15 21 -18 12 -33 29 -33 39 0 10 -7 23 -15 30 -9 7 -13 20 -10 28 5 13 3
13 -12 1 -15 -13 -16 -12 -10 9 6 27 -1 23 -17 -9 -14 -27 -28 -28 -42 -1 -10
20 -11 20 -62 -10 -52 -29 -68 -46 -34 -34 14 5 13 3 -3 -9 -11 -9 -51 -43
-89 -78 -38 -34 -92 -79 -119 -99 -28 -21 -45 -38 -38 -38 7 0 30 13 51 30 20
16 40 27 43 24 2 -3 15 9 27 25 12 17 28 31 35 31 8 0 21 10 30 23 8 12 18 21
20 20 15 -8 25 -1 25 17 0 31 17 24 45 -20 29 -46 34 -49 28 -17 -2 12 1 29 7
37 9 13 12 12 25 -4 8 -11 15 -28 15 -38 0 -10 7 -18 17 -18 13 0 14 -3 5 -12
-8 -8 -6 -18 8 -38 l20 -28 -45 -37 c-42 -34 -56 -59 -37 -67 5 -1 12 -19 15
-38 l6 -35 -15 28 c-21 38 -28 34 -9 -5 45 -92 80 -157 82 -154 2 2 -6 23 -17
47 -11 24 -20 54 -20 67 l0 22 20 -20 c11 -11 24 -20 30 -20 5 0 14 -19 21
-42 6 -24 15 -54 20 -68 4 -14 11 -42 14 -64 3 -21 8 -43 11 -50 3 -6 -1 -3
-9 7 -11 14 -16 15 -20 5 -3 -7 -6 -1 -6 15 -1 15 -4 27 -8 27 -5 0 -8 -35 -8
-79 0 -74 -18 -137 -36 -126 -4 3 -5 -3 -2 -13 4 -18 -75 -146 -119 -192 -38
-39 -79 -72 -85 -67 -2 3 -29 -4 -59 -14 -30 -11 -59 -17 -65 -14 -5 4 -9 2
-9 -3 0 -6 27 -9 59 -8 32 0 57 3 55 5 -2 3 14 15 36 28 22 13 40 29 40 34 0
6 5 7 10 4 6 -3 10 -3 10 2 0 4 17 25 37 46 20 22 55 72 78 113 l43 74 6 -53
c9 -68 -10 -262 -34 -348 -19 -71 -32 -100 -61 -137 -9 -12 -16 -30 -14 -40 2
-9 4 -19 4 -22 1 -3 24 -6 52 -8 34 -2 49 0 44 8 -3 6 -10 8 -14 6 -15 -9 -35
12 -24 26 9 12 27 66 52 158 7 26 9 -7 9 -127 -1 -134 -3 -163 -15 -168 -13
-4 -14 -20 -9 -85 3 -43 2 -81 -3 -84 -4 -3 -14 -27 -21 -53 -7 -27 -25 -73
-40 -103 -39 -77 -66 -178 -52 -192 7 -7 7 -16 0 -27 -8 -14 0 -39 37 -117 87
-181 86 -179 64 -203 -10 -11 -19 -24 -19 -28 0 -4 -16 -26 -36 -48 -19 -22
-32 -34 -28 -26 5 9 3 12 -5 7 -6 -4 -9 -11 -6 -16 8 -12 -37 -72 -46 -63 -3
5 -21 50 -39 100 -28 81 -31 95 -19 110 13 17 13 17 -5 3 -17 -13 -19 -13 -14
0 3 8 -5 44 -17 80 -41 123 -85 368 -67 379 5 3 33 53 63 111 48 96 98 182
153 267 16 26 28 33 53 33 17 0 34 4 37 8 3 5 -9 6 -26 4 -26 -4 -30 -2 -25
12 14 35 -63 6 -80 -31 -13 -27 -6 -30 13 -6 7 10 16 14 20 10 12 -12 -11 -42
-32 -42 -13 0 -28 -18 -47 -55 -15 -30 -47 -84 -71 -120 -24 -36 -55 -88 -69
-116 -31 -61 -116 -140 -190 -177 -154 -75 -180 -86 -189 -80 -6 3 -8 1 -5 -4
8 -13 -50 -36 -67 -26 -6 3 -8 3 -4 -2 9 -10 -95 -55 -134 -58 -14 -1 -24 -5
-23 -8 2 -3 -33 -17 -78 -31 -203 -65 -217 -67 -235 -45 -13 15 -162 314 -192
384 -12 29 -26 50 -31 47 -5 -3 -6 2 -3 11 8 21 -14 75 -43 102 -15 15 -23 34
-23 57 0 19 -5 38 -11 42 -6 4 -8 20 -5 39 4 19 2 36 -4 40 -19 12 -10 52 15
71 l25 19 -22 7 c-19 5 -18 6 10 7 17 1 32 -3 32 -8 0 -14 312 -14 344 0 14 7
26 16 26 21 0 5 23 59 51 119 45 97 50 113 40 140 -8 24 -7 33 7 47 14 14 17
33 14 107 -2 50 -7 99 -12 110 -5 11 -11 31 -13 45 -3 14 -11 39 -18 56 -11
28 -10 36 6 60 16 25 19 26 25 10 5 -15 17 -6 71 53 60 65 180 256 179 285 -1
6 -8 -1 -16 -16 -18 -34 -24 -36 -16 -6 l5 21 -22 -22 c-14 -14 -20 -29 -16
-41 4 -13 -2 -26 -19 -41 -15 -13 -26 -30 -26 -40 0 -9 -11 -24 -25 -33 -14
-9 -25 -23 -25 -31 0 -8 -11 -22 -25 -31 -14 -9 -25 -25 -25 -35 0 -18 -17
-35 -26 -26 -11 11 -35 194 -41 314 -5 106 -3 136 8 150 11 14 9 14 -12 -2
-102 -77 -189 -148 -218 -179 -42 -43 -61 -46 -62 -8 -1 31 -27 106 -28 80 -2
-32 -30 -19 -51 21 -11 22 -37 54 -59 71 -70 57 -61 96 40 175 74 58 245 227
307 303 67 81 158 120 253 107 48 -7 51 -9 99 -81 28 -40 50 -80 50 -89 0 -8
5 -15 10 -15 6 0 5 -8 -2 -20 -10 -15 -10 -22 0 -32 9 -9 12 -8 12 6 0 9 5 14
10 11 13 -8 13 36 -2 107 -7 31 -10 60 -7 62 10 11 99 -27 104 -45 3 -10 21
-35 40 -56 19 -21 35 -46 35 -55 0 -10 4 -18 9 -18 5 0 9 -10 10 -22 1 -35 7
-71 14 -88 3 -8 7 -26 9 -40 2 -14 6 -23 9 -20 3 3 14 -2 24 -10 17 -14 18
-13 11 15 -9 35 -26 135 -26 152 0 8 9 9 32 2 43 -12 95 -12 103 1 3 5 -1 23
-9 39 -18 33 -71 56 -116 49 -43 -6 -45 23 -4 63 19 18 34 28 34 22 0 -6 33
-33 73 -59 39 -27 74 -51 77 -54 11 -12 149 -100 166 -106 11 -3 4 4 -13 16
-18 12 -33 25 -33 28 0 9 221 135 226 129 3 -2 0 -16 -6 -31 -5 -15 -10 -48
-10 -74 0 -33 -6 -52 -22 -71 -13 -14 2 -4 32 21 30 26 65 58 76 73 l21 26 6
-37 c3 -20 14 -45 23 -55 13 -15 18 -45 22 -139 3 -66 9 -120 13 -120 5 0 9
-25 9 -55 0 -41 -4 -55 -14 -55 -8 0 -18 5 -21 10 -3 6 1 10 9 10 12 0 16 10
14 43 -1 36 -2 38 -5 10 -5 -38 -9 -39 -37 -15 -21 17 -21 17 -3 -4 10 -12 17
-27 15 -34 -4 -17 29 -37 42 -24 10 10 14 256 5 312 -7 34 -1 38 38 23 20 -8
25 -18 30 -63 4 -29 9 -72 13 -94 6 -39 4 -43 -22 -55 -37 -19 -39 -31 -10
-67 14 -16 28 -47 32 -68 5 -37 5 -38 -10 -19 -8 11 -16 16 -16 11 0 -12 41
-78 46 -73 2 2 6 21 9 43 3 23 1 34 -4 26 -6 -10 -10 -7 -13 12 -3 15 -1 26 6
26 6 1 2 9 -9 18 -11 10 -29 28 -40 40 -26 32 -4 47 38 26 16 -9 31 -13 34
-11 2 3 -5 8 -16 12 -22 7 -28 21 -11 27 13 4 21 106 9 113 -5 4 -9 19 -9 36
0 21 5 29 18 30 9 0 26 2 37 5 40 8 87 -8 126 -43 39 -35 88 -113 72 -113 -10
-1 39 -29 50 -30 4 0 7 15 7 34 0 46 72 378 116 536 13 47 31 112 40 145 9 33
22 76 30 95 7 19 22 76 34 125 11 50 27 117 35 150 8 33 19 139 25 235 10 156
14 180 37 222 26 48 146 178 165 178 5 0 22 -7 36 -16z m-228 -161 c-11 -14
-17 -30 -13 -36 3 -6 1 -7 -5 -3 -9 5 -9 13 0 29 7 12 13 25 14 30 1 4 2 10 3
13 0 3 6 2 11 -1 6 -4 3 -16 -10 -32z m-24 -77 c0 -14 -3 -23 -7 -20 -6 3 -6
22 0 42 3 10 7 -2 7 -22z m-1372 -88 l29 -51 -44 7 c-24 4 -44 8 -46 9 -4 5
20 87 26 87 3 0 19 -23 35 -52z m-557 -75 c-4 -3 -2 -12 4 -20 9 -9 8 -17 -1
-28 -6 -8 -8 -20 -4 -26 4 -7 3 -9 -4 -5 -5 3 -13 0 -16 -6 -3 -7 -3 -2 0 11
4 15 2 21 -4 17 -12 -7 -10 19 2 31 4 4 7 4 6 -2 -4 -18 0 -26 10 -20 7 4 7
12 0 24 -8 17 -5 31 8 31 3 0 2 -3 -1 -7z m52 -45 c-4 -24 -8 -49 -9 -56 0
-17 -20 -5 -20 12 0 15 28 86 34 86 2 0 0 -19 -5 -42z m1666 23 c3 -5 2 -12
-3 -15 -5 -3 -9 1 -9 9 0 17 3 19 12 6z m21 -77 c1 -9 0 -13 -4 -10 -3 4 -7
14 -8 22 -1 9 0 13 4 10 3 -4 7 -14 8 -22z m74 -19 c13 -14 21 -25 18 -25 -2
0 -15 11 -28 25 -13 14 -21 25 -18 25 2 0 15 -11 28 -25z m-1944 -52 c0 -32 2
-76 6 -98 l7 -40 -15 33 c-21 47 -21 162 0 162 2 0 3 -26 2 -57z m1969 14 c4
5 5 2 1 -5 -6 -11 -15 -7 -37 14 -16 15 -29 30 -29 33 0 2 13 -7 28 -22 16
-15 32 -24 37 -20z m-857 8 c-3 -3 -9 2 -12 12 -6 14 -5 15 5 6 7 -7 10 -15 7
-18z m779 8 c0 -9 -4 -10 -14 -2 -7 6 -13 12 -13 14 0 1 6 2 13 2 8 0 14 -6
14 -14z m29 -29 c1 -9 0 -13 -4 -10 -3 4 -7 14 -8 22 -1 9 0 13 4 10 3 -4 7
-14 8 -22z m-1956 13 c0 -2 -14 -16 -32 -33 -30 -28 -30 -17 0 19 13 15 32 23
32 14z m1160 -43 c0 -8 -5 -14 -11 -14 -5 0 -7 5 -4 10 4 6 1 19 -7 28 -12 15
-11 16 5 3 9 -7 17 -20 17 -27z m857 11 c0 -8 -4 -12 -9 -9 -5 3 -6 10 -3 15
9 13 12 11 12 -6z m40 -29 c-2 -34 -4 -40 -7 -21 -1 6 -7 16 -13 24 -9 12 -9
13 1 7 7 -4 12 -1 12 8 0 9 2 16 4 16 3 0 4 -15 3 -34z m-2171 12 c4 -7 3 -8
-4 -4 -8 5 -12 -4 -13 -26 -1 -25 -3 -27 -6 -10 -5 23 2 52 11 52 3 0 8 -5 12
-12z m2129 -18 c10 -11 16 -20 13 -20 -3 0 -13 9 -23 20 -10 11 -16 20 -13 20
3 0 13 -9 23 -20z m-113 -5 c3 0 8 -2 10 -5 2 -3 1 -4 -1 -3 -2 2 -11 -3 -20
-9 -9 -7 -13 -8 -9 -4 4 5 2 16 -5 24 -10 13 -9 14 3 7 8 -6 18 -10 22 -10z
m107 -42 c-14 -17 -12 -17 -35 10 -19 22 -19 22 2 4 11 -9 24 -14 27 -10 4 3
-1 16 -10 27 -18 21 -18 21 4 2 18 -15 20 -22 12 -33z m-102 2 c0 -8 -4 -12
-9 -9 -5 3 -6 10 -3 15 9 13 12 11 12 -6z m28 6 c3 -5 2 -12 -3 -15 -5 -3 -9
1 -9 9 0 17 3 19 12 6z m-760 -10 c3 -5 2 -12 -3 -15 -5 -3 -9 1 -9 9 0 17 3
19 12 6z m812 -36 c0 -8 -4 -12 -9 -9 -5 4 -7 9 -4 12 3 3 -2 15 -11 26 -18
21 -18 21 3 3 11 -9 21 -24 21 -32z m54 8 c-12 -20 -14 -14 -5 12 4 9 9 14 11
11 3 -2 0 -13 -6 -23z m-2187 -14 c18 -90 -5 -154 -38 -107 -20 28 -20 42 -1
58 8 7 15 28 15 46 0 43 15 44 24 3z m23 9 c-3 -8 -6 -5 -6 6 -1 11 2 17 5 13
3 -3 4 -12 1 -19z m2079 0 c4 4 3 0 -3 -8 -6 -8 -9 -22 -8 -31 2 -9 -3 -16
-11 -16 -7 0 -10 5 -6 11 10 16 9 29 -2 46 -9 13 -8 13 5 3 9 -7 20 -9 25 -5z
m70 -25 c-10 -11 -19 -7 -22 10 -2 15 0 16 12 6 8 -6 12 -14 10 -16z m-1261
-11 c0 -18 -20 -15 -23 4 -3 10 1 15 10 12 7 -3 13 -10 13 -16z m1236 -9 c13
-16 12 -17 -3 -4 -10 7 -18 15 -18 17 0 8 8 3 21 -13z m-554 -46 c-5 -15 -19
-18 -35 -9 -7 5 -10 16 -6 25 5 13 10 14 26 6 10 -6 18 -15 15 -22z m1154 24
c7 -30 4 -91 -4 -91 -5 0 -2 -9 7 -19 10 -11 16 -28 13 -38 -4 -14 -5 -14 -6
5 -2 33 -17 27 -16 -7 0 -16 8 -38 16 -48 16 -18 18 -25 24 -98 1 -22 4 -42 5
-45 1 -3 4 -18 6 -35 2 -16 6 -46 9 -66 4 -25 2 -40 -6 -45 -9 -5 -10 -2 -6 9
3 9 2 19 -3 22 -5 3 -7 15 -5 27 3 12 0 27 -6 35 -6 7 -13 27 -14 45 -2 18 -7
47 -10 63 -4 17 -8 44 -9 60 -1 17 -4 35 -7 40 -3 6 -5 34 -3 62 1 29 -1 51
-5 49 -3 -2 -7 15 -7 38 -1 30 3 43 12 43 8 0 15 -3 15 -6z m-651 -6 c0 -2 -6
-8 -13 -14 -10 -8 -14 -7 -14 2 0 8 6 14 14 14 7 0 13 -1 13 -2z m37 -17 c-3
-8 -6 -5 -6 6 -1 11 2 17 5 13 3 -3 4 -12 1 -19z m-17 -12 c0 -8 -9 -24 -20
-37 l-19 -24 17 37 c19 41 22 45 22 24z m25 -78 c-33 -103 -88 -317 -119 -463
-15 -66 -33 -149 -41 -185 -8 -36 -17 -82 -21 -102 -6 -36 -24 -54 -24 -25 0
26 -58 100 -100 128 -34 23 -54 29 -98 29 -57 0 -164 32 -194 58 -10 8 -18 24
-18 35 0 14 4 17 18 12 68 -30 210 -29 248 0 17 13 16 14 -12 9 -36 -7 -135
39 -174 81 -22 23 -22 25 -4 31 50 17 114 51 169 89 33 23 65 45 72 49 8 4 26
-20 53 -74 22 -44 44 -79 48 -76 5 3 14 56 22 117 l13 113 49 51 c34 36 48 58
48 78 0 20 14 44 43 77 23 26 43 47 44 46 1 -1 -9 -36 -22 -78z m-2205 62
c-20 -13 -33 -13 -25 0 3 6 14 10 23 10 15 0 15 -2 2 -10z m726 -32 c1 -18 0
-27 -3 -20 -2 6 -8 10 -12 8 -4 -3 -8 1 -8 9 0 8 5 12 10 8 5 -3 6 4 2 18 -4
13 -4 21 0 17 4 -4 9 -22 11 -40z m-286 -24 c0 -21 66 -207 91 -256 11 -21 19
-39 19 -42 0 -2 -29 -4 -66 -4 -53 0 -77 -5 -128 -31 -53 -26 -76 -46 -139
-124 -71 -87 -257 -269 -257 -250 0 4 9 23 20 41 25 41 25 57 -1 83 l-20 20
42 67 c24 37 58 85 75 107 32 40 43 70 65 180 6 33 21 77 33 98 17 31 25 37
44 32 39 -10 62 3 62 34 0 27 2 28 62 35 34 3 67 11 72 16 15 15 26 12 26 -6z
m276 -47 c1 -18 -1 -36 -4 -42 -6 -10 -11 -36 -14 -72 -1 -13 -6 -23 -10 -23
-5 0 -6 12 -2 28 3 15 6 39 7 54 0 15 4 25 8 22 4 -2 6 14 4 37 -2 22 0 38 3
34 4 -4 7 -21 8 -38z m-1026 -57 c-30 -16 -62 -29 -70 -29 -19 0 89 57 110 58
8 0 -10 -13 -40 -29z m2163 -50 l24 -49 -33 1 c-27 1 -36 7 -49 34 -20 42 -19
62 3 67 25 5 29 1 55 -53z m-1169 -117 c-3 -43 -10 -84 -15 -93 -7 -11 -8 -8
-4 10 5 22 12 93 14 143 1 9 3 17 6 17 3 0 3 -35 -1 -77z m1127 -25 c-30 -25
-55 -39 -38 -21 4 3 -1 16 -10 27 -18 21 -18 21 3 4 23 -20 39 -24 28 -6 -5 7
-3 8 6 3 10 -6 12 -4 7 8 -4 12 -2 14 11 10 15 -6 15 -5 3 10 -7 9 -17 14 -22
11 -5 -3 -6 2 -2 12 5 14 3 15 -18 5 -21 -11 -22 -10 -7 2 10 8 17 16 15 18
-1 2 12 -9 28 -26 l30 -30 -34 -27z m-1016 43 c6 -11 -46 -39 -63 -33 -19 6
-14 22 7 22 11 0 23 5 26 10 8 13 22 13 30 1z m940 -11 c4 -6 1 -9 -6 -8 -8 2
-13 -6 -14 -19 0 -12 -3 -25 -7 -29 -4 -4 -2 -14 5 -23 11 -14 10 -14 -5 -2
-10 7 -15 18 -11 25 4 6 8 18 8 26 0 15 13 40 20 40 2 0 7 -5 10 -10z m24 -59
c-2 -6 -10 2 -17 17 -11 25 -11 25 4 10 9 -9 15 -21 13 -27z m-94 19 c-3 -5
-1 -10 6 -10 7 0 10 -3 6 -6 -9 -9 -28 6 -22 17 4 5 8 9 11 9 3 0 2 -4 -1 -10z
m-782 -30 c26 -13 47 -27 47 -32 0 -15 -49 -40 -68 -34 -21 7 -56 72 -46 87 3
6 9 9 12 7 4 -2 28 -14 55 -28z m-137 3 c17 -17 17 -18 -5 -21 -27 -4 -47 11
-37 27 10 16 22 14 42 -6z m895 -6 c-7 -7 -7 -14 0 -23 14 -17 -9 -30 -24 -15
-9 9 -7 10 8 5 17 -7 18 -6 7 8 -9 11 -10 18 -2 23 6 3 7 11 4 17 -5 7 -2 8 5
3 9 -5 10 -10 2 -18z m96 8 c0 -8 -4 -12 -9 -9 -5 3 -6 10 -3 15 9 13 12 11
12 -6z m-46 -22 c7 -10 9 -15 5 -11 -5 4 -16 2 -25 -5 -14 -10 -14 -10 -4 4 7
9 10 19 6 22 -3 4 -4 7 -1 7 3 0 12 -8 19 -17z m-1971 -19 c0 -8 -19 -13 -24
-6 -3 5 1 9 9 9 8 0 15 -2 15 -3z m1860 -30 c0 -3 -6 -2 -12 1 -7 4 1 -5 17
-19 51 -45 55 -47 55 -37 0 6 -8 15 -17 20 -10 6 -13 11 -6 11 6 0 21 -11 32
-26 11 -14 21 -25 23 -24 2 1 28 -11 58 -25 l55 -26 -66 4 c-72 5 -166 46
-209 92 l-22 23 28 15 c26 14 64 8 64 -9z m22 0 c2 -7 -1 -14 -6 -15 -5 -2
-10 6 -11 19 -2 22 10 19 17 -4z m-1868 1 c3 -8 0 -14 -7 -12 -7 1 -11 -4 -9
-12 3 -12 0 -12 -12 -2 -16 14 -12 36 5 26 5 -4 9 -1 9 4 0 16 7 13 14 -4z
m-110 -57 c0 -18 5 -40 10 -48 9 -13 9 -13 -5 -2 -15 11 -16 8 -15 -27 1 -22
5 -43 9 -47 4 -4 7 -12 7 -17 0 -5 -10 2 -21 17 -12 15 -24 25 -27 22 -3 -3 3
-15 12 -25 17 -18 17 -20 -1 -29 -10 -5 -28 -8 -41 -6 -14 3 -21 0 -17 -6 3
-5 1 -10 -4 -10 -6 0 -11 3 -11 6 0 5 100 204 103 204 1 0 2 -15 1 -32z m1230
16 c3 -8 2 -12 -4 -9 -6 3 -10 10 -10 16 0 14 7 11 14 -7z m-1130 -13 c3 -4
-5 -18 -18 -30 -16 -15 -26 -19 -31 -12 -4 7 -1 10 7 9 7 -2 12 3 11 10 -2 6
3 11 10 10 6 -2 11 3 10 10 -3 14 3 16 11 3z m1815 -28 c2 -1 -15 -21 -38 -44
-44 -45 -47 -42 -35 32 6 36 7 36 38 25 17 -6 33 -12 35 -13z m-1886 -91 c-7
-17 -13 -10 -19 24 -5 27 -4 28 9 9 8 -10 12 -25 10 -33z m3301 -124 c3 -13 0
-27 -6 -33 -8 -7 -9 -6 -4 2 4 7 2 22 -4 33 -6 11 -7 20 -2 20 6 0 12 -10 16
-22z m-1604 -44 c0 -12 3 -31 6 -41 3 -10 -5 2 -19 27 -25 47 -26 89 0 54 7
-10 13 -28 13 -40z m76 13 c-5 -26 -18 -57 -24 -57 -5 0 -7 64 -3 89 1 2 7 -2
15 -8 8 -7 13 -17 12 -24z m14 -85 c0 -38 -9 -46 -32 -25 -17 15 -17 17 -2 35
24 26 34 23 34 -10z m-1116 -254 c4 -73 13 -164 20 -202 13 -66 12 -70 -11
-114 -25 -46 -25 -47 -8 -102 10 -30 21 -63 26 -72 5 -10 12 -56 15 -103 7
-80 5 -87 -16 -110 -20 -21 -21 -28 -11 -56 10 -29 6 -42 -39 -143 -64 -141
-64 -141 -232 -127 -176 15 -280 34 -320 59 -43 26 -70 27 -153 5 -63 -17 -65
-17 -130 6 -49 18 -69 21 -78 12 -18 -18 -29 -13 -17 9 49 92 527 672 652 792
27 26 51 53 52 61 1 7 19 31 40 53 38 39 186 162 197 163 3 1 9 -59 13 -131z
m-374 105 c0 -17 -137 -156 -150 -151 -8 2 15 32 64 81 76 76 86 84 86 70z
m-942 -111 c3 -18 -1 -22 -23 -22 -29 0 -45 27 -24 41 22 14 44 6 47 -19z
m2387 -22 c3 -6 -1 -7 -9 -4 -18 7 -21 14 -7 14 6 0 13 -4 16 -10z m-2377 -28
c2 -6 -2 -12 -8 -12 -7 0 -5 -6 4 -16 24 -24 20 -53 -8 -60 -14 -3 -30 -3 -35
1 -15 9 -14 55 2 55 8 0 8 3 -2 9 -8 5 -15 18 -16 29 -1 16 3 18 29 13 16 -4
31 -12 34 -19z m1562 18 c0 -5 -4 -10 -10 -10 -5 0 -10 5 -10 10 0 6 5 10 10
10 6 0 10 -4 10 -10z m-40 -75 c0 -8 -4 -15 -10 -15 -5 0 -7 7 -4 15 4 8 8 15
10 15 2 0 4 -7 4 -15z m-1502 -67 c3 -21 -2 -26 -25 -31 -29 -5 -43 6 -43 35
0 9 10 18 23 21 34 6 42 2 45 -25z m1460 0 c-2 -6 -10 -14 -16 -16 -7 -2 -10
2 -6 12 7 18 28 22 22 4z m-50 -68 c-7 -11 -15 -15 -17 -9 -2 6 3 15 10 20 20
12 21 11 7 -11z m1637 -110 c9 -52 23 -122 31 -155 l16 -60 -77 -152 c-42 -84
-79 -154 -83 -157 -4 -3 -6 11 -4 30 2 19 8 34 12 34 4 0 8 35 9 78 1 122 11
181 47 274 38 97 41 125 19 154 -8 10 -15 32 -15 49 0 26 2 28 15 14 8 -8 22
-57 30 -109z m-589 -201 c1 -5 2 -14 3 -20 0 -5 5 -8 10 -5 5 3 13 0 19 -7 9
-11 41 -97 46 -122 1 -5 4 -14 7 -20 4 -5 10 -28 14 -50 4 -22 9 -44 12 -49 3
-4 7 -33 9 -63 2 -30 9 -62 16 -71 11 -13 11 -14 -2 -7 -11 7 -10 2 4 -19 10
-16 12 -25 5 -21 -9 6 -11 3 -6 -9 4 -10 7 -30 7 -44 0 -21 2 -24 10 -12 8 12
9 9 6 -10 -2 -14 2 -31 8 -39 9 -12 8 -13 -3 -7 -10 7 -12 3 -7 -15 6 -21 6
-22 -4 -6 -7 10 -10 27 -7 38 7 27 -27 26 -182 -7 l-24 -5 6 183 c4 101 11
204 16 230 6 25 11 65 13 88 1 23 5 43 9 46 4 2 6 14 4 26 -3 11 -1 17 3 14 4
-4 8 -12 8 -17z m490 -12 c-3 -13 -8 -57 -12 -98 -8 -103 -7 -101 -48 -84 -20
8 -47 15 -61 15 -14 0 -25 4 -25 9 0 6 23 36 51 68 28 32 58 70 67 86 20 33
36 35 28 4z m98 -364 c-32 -56 -105 -153 -130 -173 -16 -14 -16 -13 -4 9 30
57 145 211 158 211 2 0 -9 -21 -24 -47z m-2623 -45 c48 -14 48 -26 6 -97 -27
-46 -39 -56 -77 -67 -59 -18 -160 -19 -160 -1 0 13 169 176 184 177 5 0 26 -5
47 -12z m270 -9 c38 -27 37 -36 -8 -49 -33 -10 -46 -8 -98 14 -63 26 -63 29 9
46 51 13 66 11 97 -11z m-621 -40 c15 -28 5 -23 -15 7 -9 15 -12 23 -6 20 6
-4 16 -16 21 -27z m220 26 c0 -2 -6 -8 -13 -14 -10 -8 -14 -7 -14 2 0 8 6 14
14 14 7 0 13 -1 13 -2z m-55 -38 c-8 -13 -13 -26 -9 -29 3 -3 1 -9 -5 -12 -13
-8 -5 32 10 50 18 22 21 16 4 -9z m-154 -34 c13 -16 12 -17 -3 -4 -17 13 -22
21 -14 21 2 0 10 -8 17 -17z m91 -37 c7 4 8 2 4 -5 -9 -13 -26 -5 -25 12 0 9
2 8 6 -1 2 -6 10 -9 15 -6z m-23 -23 c2 -1 -5 -1 -16 0 -11 0 -20 7 -20 14 0
10 4 10 16 1 9 -7 18 -13 20 -15z m2341 -11 c0 -5 -10 -14 -22 -20 -22 -10
-22 -11 7 -12 43 -1 12 -16 -47 -22 -42 -5 -48 -3 -48 13 0 11 -1 22 -2 27 -2
4 12 8 30 9 19 1 36 4 39 7 9 9 43 7 43 -2z m-2539 -29 c1 -10 2 -31 4 -48 2
-16 5 -77 8 -135 3 -58 11 -129 17 -159 12 -63 7 -70 -50 -72 -19 0 -47 -2
-61 -3 -25 -3 -27 1 -37 58 -6 34 -18 93 -26 131 -8 39 -18 105 -21 147 l-7
76 48 7 c27 3 56 8 64 9 40 9 60 5 61 -11z m2663 -31 c-15 -10 -25 -40 -14
-47 4 -3 10 1 13 7 2 7 4 1 4 -15 0 -15 -3 -29 -7 -32 -4 -3 -7 3 -6 13 1 14
-6 16 -34 14 -19 -1 -54 -9 -77 -17 -57 -19 -79 -19 -87 2 -10 26 8 36 107 59
107 25 116 26 101 16z m-469 -89 c-19 -32 -35 -62 -35 -68 0 -5 -11 -23 -25
-40 -30 -37 -32 -14 -2 37 39 66 82 127 89 128 4 0 -8 -26 -27 -57z m349 -35
c-3 -4 -12 -8 -20 -8 -8 0 -14 -4 -14 -10 0 -5 10 -10 23 -10 33 -1 2 -16 -49
-24 -39 -5 -42 -4 -49 21 -3 14 -2 29 4 32 14 9 110 8 105 -1z m-1625 -48 c11
-24 11 -24 -3 -6 -9 11 -16 24 -16 30 0 12 5 7 19 -24z m1521 -126 c0 -44 28
-131 55 -173 12 -20 26 -52 29 -71 17 -85 59 -217 74 -234 14 -15 27 -17 68
-13 29 3 66 13 84 22 17 9 34 14 36 12 3 -3 -2 -36 -11 -73 -32 -136 -65 -314
-65 -349 0 -41 -3 -42 -51 -12 -124 76 -330 287 -280 287 5 0 14 13 19 30 6
16 20 40 31 52 25 26 27 51 6 68 -8 7 -15 19 -15 27 0 8 -25 62 -56 120 -50
95 -55 108 -43 129 9 18 9 26 0 38 -13 15 -8 30 62 193 l31 72 13 -47 c7 -26
12 -61 13 -78z m206 45 c0 -41 5 -82 10 -90 11 -18 14 -40 5 -34 -4 2 -7 -8
-5 -23 1 -15 2 -40 3 -55 1 -19 5 -26 14 -21 6 4 1 -5 -13 -19 -18 -19 -31
-25 -47 -21 -13 4 -20 11 -16 17 3 6 1 7 -5 3 -7 -4 -12 -1 -12 8 0 9 -4 16
-9 16 -5 0 -13 9 -16 21 -4 11 -9 18 -12 15 -3 -3 1 -16 10 -29 12 -19 13 -24
2 -24 -8 0 -14 3 -13 6 2 15 -16 72 -23 77 -5 3 -7 9 -4 14 3 5 0 12 -6 16 -8
4 -9 3 -5 -4 4 -7 4 -12 -1 -12 -15 0 -34 55 -40 115 l-5 60 73 22 c112 33
114 32 115 -58z m-1702 5 c3 -8 2 -12 -4 -9 -6 3 -10 10 -10 16 0 14 7 11 14
-7z m1152 -31 c-10 -10 -19 5 -10 18 6 11 8 11 12 0 2 -7 1 -15 -2 -18z m584
-19 c0 -8 -19 -13 -24 -6 -3 5 1 9 9 9 8 0 15 -2 15 -3z m860 -51 c0 -19 -27
-16 -34 4 -4 9 -1 20 6 24 13 8 28 -7 28 -28z m-67 -13 c6 -24 -8 -36 -17 -14
-8 22 -7 34 3 34 5 0 11 -9 14 -20z m-1417 -7 c7 -10 14 -30 14 -44 0 -14 3
-29 7 -33 4 -4 6 -25 4 -46 -1 -24 2 -40 8 -40 6 0 11 -15 11 -34 0 -21 6 -36
16 -40 38 -15 -4 -26 -97 -26 -89 0 -105 3 -163 30 -66 32 -116 66 -116 79 0
5 12 11 28 14 15 3 38 15 51 26 13 12 32 21 43 21 10 0 26 9 35 20 10 11 23
20 30 20 6 0 18 6 25 13 23 22 73 56 82 57 5 0 15 -8 22 -17z m1374 -24 c0
-23 -39 -36 -51 -18 -13 21 -11 37 8 48 22 12 43 -3 43 -30z m-247 -67 c8 -17
8 -28 -1 -42 -9 -16 -9 -18 2 -14 9 3 17 -3 21 -16 8 -25 -1 -37 -30 -42 -15
-2 -21 3 -23 22 -2 14 -9 31 -14 38 -6 7 -12 22 -14 35 -2 12 -6 32 -10 44 -5
18 -1 25 17 32 20 7 26 5 33 -13 4 -11 13 -31 19 -44z m170 48 c7 -26 -31 -50
-44 -29 -5 8 -9 19 -9 25 0 30 45 33 53 4z m-3417 2 c11 -7 57 -126 69 -177 4
-16 12 -43 19 -60 47 -109 67 -165 61 -174 -4 -7 1 -8 12 -4 14 5 13 0 -7 -23
-14 -16 -30 -33 -36 -39 -6 -5 -16 -20 -23 -32 -13 -26 -36 -32 -27 -7 3 8 2
13 -2 10 -5 -3 -28 36 -52 87 -47 101 -170 388 -170 398 0 6 82 26 120 27 14
1 30 -2 36 -6z m3153 -59 c-16 -18 -36 -16 -43 4 -5 11 0 22 11 31 15 11 20
10 30 -4 9 -13 10 -21 2 -31z m188 31 c7 -19 -21 -44 -48 -44 -26 0 -28 33 -4
47 28 17 45 16 52 -3z m96 -36 c6 -20 -6 -37 -25 -38 -12 0 -30 39 -23 50 11
18 43 10 48 -12z m-2368 -10 c2 -7 6 -27 9 -45 3 -26 1 -30 -12 -26 -10 4 -13
2 -8 -5 3 -6 3 -13 -2 -16 -5 -3 -9 9 -9 27 -1 18 -4 42 -8 55 -6 17 -3 22 9
22 9 0 19 -6 21 -12z m2105 -29 c0 -24 -29 -37 -41 -18 -14 22 -11 37 9 42 24
5 32 -1 32 -24z m190 11 c8 -15 6 -21 -9 -30 -31 -16 -58 -12 -64 11 -4 14 1
23 16 29 34 14 45 12 57 -10z m-692 -23 c6 3 12 0 12 -6 0 -22 -18 -19 -41 7
-17 19 -18 22 -4 11 11 -9 26 -14 33 -12z m66 15 c3 -5 -1 -9 -9 -9 -8 0 -12
4 -9 9 3 4 7 8 9 8 2 0 6 -4 9 -8z m376 -39 c0 -7 -7 -13 -15 -13 -15 0 -21
31 -8 43 8 8 23 -12 23 -30z m-386 5 c-3 -4 -11 -5 -19 -1 -21 7 -19 12 4 10
11 0 18 -5 15 -9z m461 -29 c0 -17 -6 -24 -20 -24 -23 0 -33 34 -13 46 20 13
33 5 33 -22z m-62 -19 c3 -13 -1 -24 -13 -30 -14 -8 -19 -5 -23 12 -4 12 -4
25 -1 30 10 15 32 8 37 -12z m-898 -134 c8 -43 22 -93 30 -112 7 -18 10 -36 5
-39 -11 -7 -30 27 -30 53 0 11 -7 25 -16 33 -10 8 -14 22 -10 40 3 16 -2 41
-10 59 -9 17 -13 38 -10 47 11 28 24 2 41 -81z m-935 39 c-7 -9 -15 -13 -19
-10 -3 3 1 10 9 15 21 14 24 12 10 -5z m-865 -42 c3 -14 21 -58 39 -97 47
-100 66 -145 66 -157 0 -6 16 -37 35 -70 l34 -59 -50 -46 c-66 -62 -55 -70 13
-9 l53 47 90 -7 c107 -10 147 -13 158 -14 4 -1 6 -5 5 -9 -3 -8 76 -114 108
-147 8 -8 12 -20 8 -26 -4 -8 -3 -9 4 -5 6 4 19 -6 29 -21 9 -15 31 -43 49
-61 32 -34 32 -34 19 -80 -8 -26 -19 -67 -25 -91 l-11 -43 -29 27 c-16 16 -27
33 -23 38 3 6 2 7 -4 4 -12 -7 -44 28 -35 39 4 4 2 4 -5 0 -7 -4 -23 10 -40
34 -15 22 -40 54 -55 72 -15 17 -25 35 -21 41 3 6 1 7 -4 4 -14 -9 -37 19 -27
34 5 8 3 9 -5 5 -7 -5 -21 0 -32 10 -38 34 -18 1 32 -55 29 -30 69 -78 89
-106 32 -43 162 -175 172 -175 1 0 3 13 4 28 1 16 11 60 22 99 19 62 25 71 49
76 50 10 207 0 243 -15 19 -8 40 -16 45 -18 6 -2 16 -9 23 -16 6 -7 46 -31 87
-54 41 -23 75 -48 75 -56 0 -8 -3 -13 -7 -11 -9 6 -8 -162 1 -170 3 -3 21 4
41 16 20 11 40 21 45 21 5 0 38 16 72 35 56 31 59 34 31 32 -17 -1 -29 -5 -27
-8 6 -10 -26 -20 -38 -12 -6 3 -8 1 -5 -4 4 -6 -1 -14 -11 -19 -22 -10 -38
-14 -47 -14 -3 1 -13 -7 -23 -16 -16 -17 -17 -13 -20 65 -3 87 3 105 41 117
12 3 30 13 40 22 9 8 20 13 23 10 7 -8 160 48 201 73 38 24 49 20 58 -23 4
-17 13 -45 21 -62 l13 -31 -2 37 c-1 20 -5 34 -8 32 -8 -4 -19 48 -13 58 2 3
21 12 42 18 20 7 64 27 98 46 64 35 174 80 187 76 4 -1 5 13 2 31 -6 31 -3 37
32 65 l39 31 20 -32 c45 -76 46 -80 2 -131 -26 -30 -46 -45 -55 -41 -10 3 -13
1 -10 -9 3 -8 9 -30 12 -50 7 -35 7 -35 -39 -47 -36 -9 -45 -15 -42 -28 8 -24
47 -209 57 -265 4 -26 12 -62 18 -80 26 -83 24 -133 -5 -107 -5 5 -34 17 -64
27 -62 21 -255 24 -300 6 -22 -9 -23 -11 -5 -13 11 -1 27 -1 35 0 33 3 -16
-17 -80 -34 -36 -9 -92 -32 -125 -50 -74 -41 -215 -162 -245 -210 -26 -42 -47
-37 -24 7 9 16 11 28 6 24 -13 -8 -66 95 -87 169 -9 33 -41 135 -72 226 -53
162 -55 167 -85 173 -46 9 -65 7 -65 -6 -2 -78 -26 -476 -29 -487 -3 -9 -18
-1 -47 26 -78 72 -207 138 -307 158 -20 4 -31 4 -27 -1 5 -5 14 -9 20 -9 5 0
12 -5 14 -11 3 -8 -36 -13 -124 -17 -193 -7 -319 -57 -433 -168 -64 -64 -75
-70 -65 -39 4 12 2 20 -6 20 -9 0 -10 18 -6 69 6 69 2 97 -57 441 -13 80 -27
170 -31 200 -3 30 -24 120 -45 200 -40 149 -64 336 -40 314 8 -9 22 -6 53 9
23 11 69 28 102 37 33 10 67 20 75 24 12 5 25 -13 54 -79 21 -47 41 -84 43
-82 2 3 -26 73 -62 157 -36 84 -64 154 -63 156 7 6 125 43 139 44 10 0 20 -11
24 -27z m1086 -90 c34 -20 37 -29 9 -29 -10 0 -17 2 -15 4 2 3 -6 13 -18 23
-28 23 -14 24 24 2z m464 -14 c-10 -15 -25 -10 -19 6 4 8 10 12 15 9 5 -3 7
-10 4 -15z m-778 -2 c-2 -7 -16 -14 -32 -15 -23 -3 -27 -1 -18 10 15 17 56 21
50 5z m1089 -92 c7 -39 -2 -58 -16 -35 -13 20 -13 70 0 70 5 0 12 -16 16 -35z
m830 -62 c-2 -16 -5 -28 -6 -28 -1 0 -3 -18 -6 -39 -6 -64 -15 -55 -11 11 4
55 11 83 22 83 2 0 2 -12 1 -27z m-737 -87 c64 -85 172 -173 343 -279 l27 -17
0 -167 c0 -146 19 -360 37 -415 7 -23 0 -22 -71 2 -115 40 -257 127 -353 217
-7 7 -24 56 -36 109 -21 87 -22 96 -7 101 42 13 72 26 76 33 3 5 0 21 -5 36
-10 24 -7 31 23 63 49 52 66 81 60 100 -4 9 -39 71 -80 139 -40 68 -73 125
-73 128 0 16 24 -4 59 -50z m-3344 -17 c-3 -9 -1 -20 5 -24 5 -3 10 -16 9 -28
-1 -20 -2 -20 -8 3 -5 14 -14 24 -22 22 -8 -2 -11 -1 -8 3 4 3 3 22 -1 41 -8
35 -8 35 11 18 11 -10 17 -25 14 -35z m5474 -72 c8 -10 7 -14 -4 -14 -8 0 -15
6 -15 14 0 7 2 13 4 13 2 0 9 -6 15 -13z m63 -46 c8 11 9 11 6 1 -4 -16 -22
-18 -25 -2 -1 7 0 6 4 -1 4 -8 8 -7 15 2z m-95 -36 c0 -8 -4 -12 -9 -9 -5 3
-6 10 -3 15 9 13 12 11 12 -6z m-5214 -23 c10 -12 23 -20 28 -17 5 4 9 0 9 -9
0 -8 -8 -13 -17 -12 -10 2 -18 8 -18 14 0 6 -4 14 -9 19 -5 5 -6 2 -2 -7 4 -8
0 -6 -8 4 -9 11 -16 15 -16 9 0 -7 4 -14 9 -17 5 -3 6 -23 4 -45 -3 -22 0 -48
6 -58 9 -14 10 -8 6 27 -3 37 -3 39 4 15 l9 -30 1 28 c0 16 5 26 11 22 5 -3 7
-11 4 -18 -3 -8 0 -24 5 -38 9 -20 10 -18 7 19 -3 23 0 42 4 42 5 0 8 -8 8
-17 -1 -29 12 -134 17 -143 3 -5 1 -11 -5 -15 -5 -3 -10 -15 -10 -26 0 -11 5
-17 10 -14 6 4 8 10 5 15 -3 5 -1 12 5 15 6 4 10 3 9 -2 -1 -4 1 -16 6 -26 4
-10 5 -21 1 -24 -3 -4 -6 1 -6 11 0 9 -5 14 -10 11 -6 -4 -7 -12 -3 -18 4 -8
1 -8 -9 1 -18 15 -29 60 -17 68 12 7 11 44 -1 44 -5 0 -7 -6 -4 -13 3 -8 -2
-20 -11 -27 -10 -9 -12 -16 -5 -25 7 -8 5 -12 -5 -12 -8 0 -13 2 -11 4 2 3 -2
16 -9 30 -7 14 -11 32 -8 39 3 8 1 14 -5 14 -5 0 -10 17 -10 38 -1 20 -3 63
-5 94 -5 62 4 70 36 30z m5304 6 c-3 -8 -6 -5 -6 6 -1 11 2 17 5 13 3 -3 4
-12 1 -19z m-283 -17 c-3 -3 -10 -7 -15 -7 -5 -1 -10 -2 -11 -4 -13 -10 -38
-5 -38 7 0 12 3 13 14 4 10 -8 16 -8 25 2 6 8 7 18 3 23 -4 4 1 2 11 -5 9 -8
15 -17 11 -20z m276 -16 c0 -5 -5 -3 -10 5 -5 8 -10 20 -10 25 0 6 5 3 10 -5
5 -8 10 -19 10 -25z m-60 10 c-5 -7 -9 -14 -7 -16 1 -2 0 -3 -2 -1 -11 7 -7
29 5 29 9 0 11 -4 4 -12z m-318 -27 c-8 -8 -9 -4 -5 13 4 13 8 18 11 10 2 -7
-1 -18 -6 -23z m366 -13 c-3 -3 -9 2 -12 12 -6 14 -5 15 5 6 7 -7 10 -15 7
-18z m-5383 -90 c60 -146 198 -426 263 -532 116 -191 187 -368 206 -507 l6
-49 -33 44 c-124 164 -272 395 -318 496 -62 137 -107 288 -144 487 -35 193
-35 194 20 61z m5277 71 c7 4 8 2 4 -5 -10 -15 -26 -4 -25 17 1 15 2 15 6 -1
2 -9 9 -14 15 -11z m-1592 -56 c25 -12 76 -41 113 -64 38 -22 82 -49 99 -58
16 -9 39 -26 50 -37 10 -12 30 -28 43 -37 14 -9 25 -22 25 -29 0 -6 9 -20 20
-30 11 -10 40 -53 65 -95 37 -64 45 -85 45 -128 0 -44 -4 -53 -27 -70 -46 -31
-50 -32 -64 -15 -10 11 -10 14 -2 9 8 -4 11 -2 8 6 -2 7 -6 27 -9 43 -3 17 -8
41 -11 55 -3 14 -7 30 -9 37 -5 26 -15 24 -10 -2 2 -14 1 -24 -4 -21 -5 3 -9
-3 -10 -12 -4 -37 -1 -135 4 -143 7 -12 -14 -21 -52 -24 -44 -3 -57 -15 -16
-15 17 0 34 -5 38 -12 4 -7 3 -8 -5 -4 -6 4 -18 3 -25 -3 -9 -8 -18 -6 -32 8
-14 13 -42 20 -95 24 -40 3 -82 8 -92 12 -13 5 -16 3 -12 -8 4 -9 -6 -22 -28
-36 -19 -11 -37 -21 -40 -21 -6 0 -47 64 -47 73 0 3 9 3 20 0 24 -6 24 -6 5
82 -21 98 -38 374 -30 472 6 72 9 81 23 73 10 -4 37 -18 62 -30z m1574 18 c1
-7 5 -20 10 -28 7 -12 6 -13 -4 -3 -8 7 -15 23 -17 35 -2 12 -1 19 3 16 3 -3
6 -12 8 -20z m76 16 c0 -8 -19 -13 -24 -6 -3 5 1 9 9 9 8 0 15 -2 15 -3z m40
0 c0 -8 -19 -13 -24 -6 -3 5 1 9 9 9 8 0 15 -2 15 -3z m-365 -23 c3 -5 2 -12
-3 -15 -5 -3 -9 1 -9 9 0 17 3 19 12 6z m339 1 c3 -5 -1 -9 -9 -9 -8 0 -12 4
-9 9 3 4 7 8 9 8 2 0 6 -4 9 -8z m-317 -19 c-4 -3 1 -15 10 -25 14 -15 14 -19
3 -16 -9 2 -14 -3 -12 -11 3 -12 0 -12 -12 -1 -17 14 -22 25 -7 15 5 -3 12 -1
15 4 4 5 2 12 -4 16 -10 6 -5 25 7 25 4 0 3 -3 0 -7z m92 -6 c8 -10 7 -14 -2
-14 -8 0 -14 6 -14 14 0 7 1 13 2 13 2 0 8 -6 14 -13z m154 -20 c4 3 7 4 7 0
0 -17 -20 -14 -36 6 -19 22 -19 22 2 4 11 -9 24 -14 27 -10z m37 17 c0 -8 -19
-13 -24 -6 -3 5 1 9 9 9 8 0 15 -2 15 -3z m40 0 c0 -8 -19 -13 -24 -6 -3 5 1
9 9 9 8 0 15 -2 15 -3z m-110 -49 c-5 -6 -7 -15 -3 -18 3 -4 4 -7 1 -7 -3 0
-11 7 -18 16 -8 8 -9 14 -4 12 5 -2 9 2 9 7 0 6 -4 9 -8 7 -5 -1 -6 2 -2 8 5
8 11 7 21 -1 10 -8 11 -15 4 -24z m-155 -25 c-8 -9 -13 -20 -10 -23 3 -4 2 -5
-2 -2 -9 7 -13 35 -5 32 4 -1 8 3 9 8 0 6 -2 9 -6 8 -4 -1 -8 5 -8 13 0 11 4
11 19 -3 16 -15 17 -18 3 -33z m32 18 c-3 -7 -5 -2 -5 12 0 14 2 19 5 13 2 -7
2 -19 0 -25z m209 10 c4 -7 3 -8 -4 -4 -7 4 -12 2 -12 -5 0 -7 -3 -10 -6 -6
-6 5 3 27 11 27 2 0 7 -5 11 -12z m-325 -15 c13 -16 12 -17 -3 -4 -10 7 -18
15 -18 17 0 8 8 3 21 -13z m284 -3 c10 -11 16 -20 13 -20 -3 0 -13 9 -23 20
-10 11 -16 20 -13 20 3 0 13 -9 23 -20z m-64 -17 c13 -16 12 -17 -3 -4 -10 7
-18 15 -18 17 0 8 8 3 21 -13z m78 -36 c-2 -3 -15 10 -28 27 l-24 31 28 -27
c16 -15 27 -29 24 -31z m-294 31 c5 4 5 1 1 -6 -6 -10 -11 -10 -22 -1 -8 6
-14 14 -14 16 0 3 6 0 13 -6 8 -6 18 -7 22 -3z m45 -4 c0 -8 -19 -13 -24 -6
-3 5 1 9 9 9 8 0 15 -2 15 -3z m70 -10 c0 -8 -19 -13 -24 -6 -3 5 1 9 9 9 8 0
15 -2 15 -3z m115 -6 c5 4 5 1 1 -6 -6 -10 -11 -10 -22 -1 -8 6 -14 14 -14 16
0 3 6 0 13 -6 8 -6 18 -7 22 -3z m-150 -10 c5 4 5 1 1 -6 -6 -10 -11 -10 -22
-1 -8 6 -14 14 -14 16 0 3 6 0 13 -6 8 -6 18 -7 22 -3z m205 -32 c0 -6 -5 -3
-11 7 -6 9 -14 15 -18 13 -4 -3 -8 1 -8 9 0 13 4 12 19 -2 10 -9 18 -21 18
-27z m217 29 c0 -8 -5 -11 -10 -8 -7 4 -8 -1 -3 -13 6 -15 5 -16 -5 -7 -10 10
-9 15 1 28 15 19 17 19 17 0z m-5373 -39 c-7 -17 32 -51 41 -36 4 6 4 17 1 25
-3 8 -2 15 2 15 6 0 44 -126 56 -185 1 -5 4 -14 8 -20 10 -16 37 -115 32 -115
-3 0 1 -10 7 -22 9 -18 9 -20 0 -12 -7 6 -14 24 -17 40 -10 60 -14 66 -32 53
-14 -11 -15 -11 -4 1 14 16 17 54 3 46 -5 -4 -8 2 -7 11 2 10 -5 41 -16 70
-10 29 -18 62 -18 73 0 12 -5 18 -10 15 -6 -4 -7 -12 -3 -18 5 -8 2 -8 -9 0
-8 7 -19 9 -23 5 -5 -4 -5 -2 -2 4 4 7 0 17 -8 24 -12 10 -15 10 -15 0 0 -8
-3 -11 -6 -7 -3 3 -1 14 4 24 8 13 6 23 -6 38 -17 20 -17 20 5 2 12 -11 20
-24 17 -31z m4903 29 c0 -8 -4 -12 -9 -9 -5 3 -6 10 -3 15 9 13 12 11 12 -6z
m-967 -34 c0 -14 -2 -14 -10 -1 -8 12 -10 12 -16 -3 -3 -9 -4 -27 -1 -39 4
-14 3 -18 -5 -10 -6 6 -7 26 -3 51 6 35 9 40 21 30 8 -6 14 -19 14 -28z m1031
26 c-6 -8 -7 -18 -3 -22 4 -5 1 -5 -6 -1 -10 6 -10 11 -1 22 6 8 14 14 16 14
3 0 0 -6 -6 -13z m386 -50 c0 -13 -3 -14 -14 -6 -15 13 -18 23 -3 14 6 -3 10
-2 10 4 0 5 -4 13 -10 16 -5 3 -10 14 -10 23 0 12 4 9 13 -8 8 -14 14 -33 14
-43z m-422 44 c3 -5 2 -12 -3 -15 -5 -3 -9 1 -9 9 0 17 3 19 12 6z m169 1 c3
-5 -1 -9 -9 -9 -8 0 -12 4 -9 9 3 4 7 8 9 8 2 0 6 -4 9 -8z m-259 -30 c-1 -9
2 -22 7 -29 5 -7 5 -14 -2 -18 -6 -3 -7 -11 -4 -17 4 -7 2 -8 -5 -4 -8 6 -9
12 -2 20 6 7 8 16 4 20 -10 10 -12 56 -2 51 4 -3 6 -13 4 -23z m294 14 c9 -11
9 -16 -1 -22 -7 -4 -10 -4 -6 1 4 4 3 14 -3 22 -6 7 -9 13 -6 13 2 0 10 -6 16
-14z m-5105 -12 c3 -8 2 -12 -4 -9 -6 3 -10 10 -10 16 0 14 7 11 14 -7z m4873
1 c0 -8 -4 -12 -9 -9 -5 3 -6 10 -3 15 9 13 12 11 12 -6z m56 -35 c-7 -25 -15
-26 -11 -2 1 9 -2 24 -7 32 -7 13 -6 13 7 2 9 -7 14 -21 11 -32z m121 24 c3
-8 2 -12 -4 -9 -6 3 -10 10 -10 16 0 14 7 11 14 -7z m31 -7 c1 -7 7 -11 13 -9
10 2 10 -3 2 -17 -16 -31 -28 -33 -40 -9 -10 21 -10 22 3 5 16 -20 34 -6 20
16 -10 16 -14 41 -5 32 4 -4 7 -12 7 -18z m-49 -22 c1 -8 -2 -18 -8 -21 -5 -4
-1 -15 11 -28 l21 -22 -20 -39 c-27 -54 -34 -58 -54 -36 -14 15 -15 21 -4 27
7 4 10 4 6 -1 -10 -10 11 -37 23 -29 5 3 9 12 9 20 0 8 -4 13 -8 10 -5 -3 -9
1 -9 9 0 11 4 12 14 4 17 -14 17 2 1 21 -11 12 -10 12 4 2 11 -9 18 -10 23 -2
9 14 -4 32 -18 24 -7 -4 -9 -3 -4 1 4 5 -3 20 -15 34 -13 14 -16 20 -6 13 18
-14 27 -6 22 21 -1 11 0 16 4 13 3 -4 7 -13 8 -21z m-126 -16 c15 -28 5 -23
-15 7 -9 15 -12 23 -6 20 6 -4 16 -16 21 -27z m400 11 c6 -11 8 -20 6 -20 -3
0 -10 9 -16 20 -6 11 -8 20 -6 20 3 0 10 -9 16 -20z m-5322 -16 c4 2 8 -10 9
-27 l2 -30 -19 39 c-21 40 -27 62 -9 31 6 -9 13 -16 17 -13z m4858 -20 c1 -9
0 -13 -4 -10 -3 4 -7 14 -8 22 -1 9 0 13 4 10 3 -4 7 -14 8 -22z m60 -6 c12
-14 13 -18 3 -10 -9 6 -18 10 -21 7 -2 -3 -5 2 -5 10 0 19 0 19 23 -7z m93
-19 c-11 -22 -15 -23 -25 -7 -4 6 -3 8 3 5 16 -10 23 18 10 34 -10 11 -9 11 5
0 14 -10 15 -18 7 -32z m75 12 c-2 -3 -12 3 -22 13 -16 17 -16 18 5 5 12 -7
20 -15 17 -18z m234 4 c-3 -3 -9 2 -12 12 -6 14 -5 15 5 6 7 -7 10 -15 7 -18z
m-493 -13 c-3 -3 1 -12 8 -21 11 -14 10 -14 -6 -2 -9 8 -15 16 -12 19 3 3 -1
12 -8 21 -11 14 -10 14 6 2 9 -8 15 -16 12 -19z m478 -17 c-7 -21 -12 -19 -10
4 0 11 5 18 9 15 4 -3 5 -11 1 -19z m-413 9 c0 -8 -19 -13 -24 -6 -3 5 1 9 9
9 8 0 15 -2 15 -3z m-4844 -26 c19 -23 19 -23 -2 -5 -11 9 -24 14 -29 10 -4
-5 -5 -2 -1 5 9 16 10 16 32 -10z m4773 -2 c9 -11 9 -16 -1 -22 -7 -4 -10 -4
-6 1 4 4 3 14 -3 22 -6 7 -9 13 -6 13 2 0 10 -6 16 -14z m55 -5 c14 -15 15
-21 4 -27 -7 -4 -10 -3 -5 1 4 5 0 17 -10 27 -9 10 -14 18 -11 18 3 0 13 -9
22 -19z m-4830 -32 c12 -23 12 -28 2 -20 -12 11 -29 51 -21 51 2 0 10 -14 19
-31z m4903 1 c-1 -11 3 -20 8 -19 6 1 9 5 8 10 -4 14 3 11 17 -7 11 -12 11
-15 -1 -12 -9 2 -14 -5 -13 -19 1 -13 -3 -20 -8 -17 -5 3 -7 9 -4 12 3 3 -1
13 -9 22 -9 10 -13 25 -9 34 8 22 14 20 11 -4z m-90 -15 c0 -8 -4 -12 -9 -9
-5 3 -6 10 -3 15 9 13 12 11 12 -6z m33 -20 c0 -19 -17 -28 -26 -14 -5 8 -3 9
6 4 10 -6 12 -3 8 13 -4 12 -2 20 3 16 5 -3 9 -11 9 -19z m-51 1 c9 -11 9 -16
-1 -22 -7 -4 -10 -4 -6 1 4 4 3 14 -3 22 -6 7 -9 13 -6 13 2 0 10 -6 16 -14z
m171 -11 c0 -2 -6 -8 -13 -14 -10 -8 -14 -7 -14 2 0 8 6 14 14 14 7 0 13 -1
13 -2z m-99 -42 c-12 -20 -14 -14 -5 12 4 9 9 14 11 11 3 -2 0 -13 -6 -23z
m35 1 c1 -9 0 -13 -4 -10 -3 4 -7 14 -8 22 -1 9 0 13 4 10 3 -4 7 -14 8 -22z
m-101 -7 c1 -7 6 -11 12 -10 9 2 9 -5 1 -27 -12 -35 -21 -40 -13 -7 4 15 1 28
-9 36 -9 7 -13 18 -10 23 7 11 19 2 19 -15z m-970 -14 c-1 -16 3 -34 8 -40 16
-21 1 -14 -19 9 -10 12 -13 18 -5 13 11 -6 13 -4 8 9 -4 10 -5 22 -1 27 8 14
10 11 9 -18z m935 22 c0 -2 -6 -8 -13 -14 -10 -8 -14 -7 -14 2 0 8 6 14 14 14
7 0 13 -1 13 -2z m180 0 c0 -2 -6 -8 -13 -14 -10 -8 -14 -7 -14 2 0 8 6 14 14
14 7 0 13 -1 13 -2z m-240 -21 c0 -8 -19 -13 -24 -6 -3 5 1 9 9 9 8 0 15 -2
15 -3z m171 -31 c17 -20 18 -23 3 -10 -11 9 -23 15 -26 12 -2 -3 -5 2 -5 10 0
19 -1 20 28 -12z m34 18 c3 -5 2 -12 -3 -15 -5 -3 -9 1 -9 9 0 17 3 19 12 6z
m-168 -32 c-1 -4 3 -6 8 -5 6 0 9 4 8 7 -1 3 5 6 13 6 18 0 18 -1 -4 -21 -18
-15 -20 -15 -35 2 -14 15 -14 19 -3 19 8 0 14 -4 13 -8z m123 -4 c0 -2 -6 -8
-13 -14 -10 -8 -14 -7 -14 2 0 8 6 14 14 14 7 0 13 -1 13 -2z m-211 -19 c9
-11 9 -16 -1 -22 -7 -4 -10 -4 -6 1 4 4 3 14 -3 22 -6 7 -9 13 -6 13 2 0 10
-6 16 -14z m53 -3 c-1 -4 7 -17 16 -28 17 -20 17 -20 -4 -2 -11 9 -21 24 -21
32 0 8 2 13 5 11 2 -2 4 -8 4 -13z m-3874 -24 c-3 -8 -7 -3 -11 10 -4 17 -3
21 5 13 5 -5 8 -16 6 -23z m4034 9 c-7 -7 -12 -8 -12 -2 0 14 12 26 19 19 2
-3 -1 -11 -7 -17z m-97 2 c-3 -5 -1 -10 6 -10 7 0 10 -3 6 -6 -9 -9 -28 6 -22
17 4 5 8 9 11 9 3 0 2 -4 -1 -10z m74 -29 c-1 -13 -2 -13 -6 2 -2 9 -8 15 -12
13 -4 -3 -8 1 -8 9 0 11 4 12 14 4 7 -6 12 -19 12 -28z m-1016 14 c-3 -9 -8
-14 -10 -11 -3 3 -2 9 2 15 9 16 15 13 8 -4z m-453 -16 c3 0 -4 -4 -15 -9 -13
-5 -26 -3 -37 8 -16 14 -18 14 -18 -1 0 -8 5 -17 11 -19 7 -2 6 -8 -3 -15 -11
-10 -13 -7 -12 15 2 41 2 41 36 31 18 -5 35 -9 38 -10z m1336 -12 c1 -8 -4
-14 -12 -14 -9 0 -11 4 -4 12 6 7 6 16 0 23 -7 9 -7 9 2 2 6 -5 13 -16 14 -23z
m-3885 6 c13 -16 12 -17 -3 -4 -17 13 -22 21 -14 21 2 0 10 -8 17 -17z m3937
-8 c-3 -3 -9 2 -12 12 -6 14 -5 15 5 6 7 -7 10 -15 7 -18z m-112 -20 c1 -8 -1
-17 -5 -19 -4 -3 -7 6 -7 19 0 25 8 25 12 0z m90 -11 c0 -13 -2 -22 -5 -19 -3
3 -6 17 -7 31 0 13 2 22 5 19 3 -3 6 -17 7 -31z m-882 11 c-7 -17 -30 -20 -39
-6 -4 8 9 15 37 20 4 0 5 -6 2 -14z m943 -10 c0 -8 -4 -12 -9 -9 -5 3 -6 10
-3 15 9 13 12 11 12 -6z m-1167 -5 l35 -1 -30 -24 c-37 -31 -42 -31 -65 -3
-21 26 -18 38 8 33 9 -2 33 -4 52 -5z m-2805 -9 c3 -5 2 -12 -3 -15 -5 -3 -9
1 -9 9 0 17 3 19 12 6z m3880 -13 c5 4 5 1 1 -6 -6 -10 -11 -10 -22 -1 -8 6
-14 14 -14 16 0 3 6 0 13 -6 8 -6 18 -7 22 -3z m-855 -2 c0 -2 -8 -10 -17 -17
-16 -13 -17 -12 -4 4 13 16 21 21 21 13z m790 -2 c0 -8 -19 -13 -24 -6 -3 5 1
9 9 9 8 0 15 -2 15 -3z m20 -8 c0 -2 -8 -10 -17 -17 -16 -13 -17 -12 -4 4 13
16 21 21 21 13z m-45 -15 c3 -5 2 -12 -3 -15 -5 -3 -9 1 -9 9 0 17 3 19 12 6z
m-991 -13 c66 4 66 4 66 -23 0 -18 -4 -24 -12 -19 -9 6 -9 3 0 -9 8 -9 11 -21
8 -26 -4 -5 -2 -12 3 -16 6 -3 8 -12 4 -20 -3 -9 1 -23 8 -33 12 -16 12 -16
-5 -1 -9 9 -18 29 -20 45 -4 52 -20 35 -17 -18 1 -29 4 -55 6 -58 2 -3 6 -23
9 -45 4 -22 11 -56 16 -75 5 -19 11 -48 14 -65 10 -56 32 -116 41 -108 4 4 5
3 2 -3 -3 -5 5 -39 18 -75 24 -64 26 -66 29 -30 0 11 4 22 7 25 5 6 4 -41 -1
-54 -1 -3 -2 -8 -1 -12 3 -23 -21 1 -75 75 -64 86 -127 192 -171 286 -29 64
-92 253 -87 262 2 3 23 3 48 -1 24 -4 74 -5 110 -2z m216 -23 c14 -19 14 -19
-2 -6 -10 7 -18 18 -18 24 0 6 1 8 3 6 1 -2 9 -13 17 -24z m822 2 c-5 -7 -7
-24 -6 -39 2 -16 -4 -32 -14 -40 -15 -11 -15 -11 -6 2 16 21 14 52 -5 75 -15
18 -15 19 2 6 16 -12 22 -9 18 12 -1 5 3 6 9 2 7 -4 7 -11 2 -18z m-72 -32
c-11 -12 -17 -25 -13 -30 5 -4 2 -5 -5 -1 -11 6 -9 13 7 30 17 18 18 25 8 36
-10 12 -9 12 6 1 17 -13 17 -15 -3 -36z m-10 19 c0 -8 -19 -13 -24 -6 -3 5 1
9 9 9 8 0 15 -2 15 -3z m-719 -27 c-7 -7 -7 -15 0 -24 7 -7 8 -13 4 -13 -4 0
-2 -7 5 -15 7 -8 17 -12 23 -8 6 3 7 1 3 -6 -6 -8 -12 -9 -20 -2 -7 6 -15 8
-19 5 -3 -3 -4 2 -3 13 2 10 1 23 -3 28 -11 19 -9 32 5 32 10 0 11 -4 5 -10z
m-3030 -14 c13 -16 12 -17 -3 -4 -17 13 -22 21 -14 21 2 0 10 -8 17 -17z
m3794 -2 c-2 -9 -4 -18 -5 -21 -1 -3 -2 -9 -1 -13 1 -5 -3 -6 -9 -2 -8 5 -8
11 -1 19 7 8 7 16 0 23 -6 6 -5 10 5 10 7 0 12 -7 11 -16z m-3799 -23 c10 -13
12 -17 4 -11 -11 10 -17 10 -29 0 -14 -10 -14 -10 -4 4 7 9 10 19 6 22 -3 4
-4 7 -1 7 3 0 13 -10 24 -22z m3706 -43 c2 3 5 -2 5 -10 0 -19 0 -19 -23 7
-12 14 -13 18 -3 10 9 -6 18 -10 21 -7z m-1846 -220 c29 -82 97 -345 91 -351
-4 -4 -29 71 -131 396 -47 147 -55 210 -15 105 17 -44 42 -111 55 -150z m1178
194 c-15 -17 -13 -23 7 -21 4 1 15 -9 25 -21 l19 -22 -22 19 c-13 11 -23 15
-23 11 0 -14 -24 13 -26 30 -1 8 3 13 9 12 7 -1 11 4 9 11 -1 8 2 11 8 7 8 -5
6 -13 -6 -26z m736 25 c0 -8 -19 -13 -24 -6 -3 5 1 9 9 9 8 0 15 -2 15 -3z
m-3763 -19 c0 -8 -4 -12 -9 -9 -5 3 -6 10 -3 15 9 13 12 11 12 -6z m2848 6 c3
-5 2 -12 -3 -15 -5 -3 -9 1 -9 9 0 17 3 19 12 6z m885 -4 c0 -2 -12 -14 -27
-28 -16 -13 -25 -20 -21 -15 4 5 2 16 -5 25 -10 14 -10 14 4 3 13 -10 19 -9
29 3 12 14 20 19 20 12z m-3735 -59 c5 4 5 1 1 -6 -6 -10 -11 -10 -22 -1 -8 6
-14 14 -14 16 0 3 6 0 13 -6 8 -6 18 -7 22 -3z m3669 4 c3 -5 -1 -9 -9 -9 -8
0 -12 4 -9 9 3 4 7 8 9 8 2 0 6 -4 9 -8z m-778 -33 c1 -10 2 -20 4 -21 5 -8 7
-39 2 -33 -4 4 -8 11 -8 16 -1 5 -3 10 -4 12 -5 5 -6 57 -1 51 3 -3 7 -14 7
-25z m170 -5 c1 -9 -1 -13 -4 -9 -4 4 -7 10 -7 13 0 4 -4 14 -9 22 -7 12 -6
13 4 3 8 -7 15 -20 16 -29z m-3095 9 c13 -16 12 -17 -3 -4 -17 13 -22 21 -14
21 2 0 10 -8 17 -17z m3689 3 c0 -2 -8 -10 -17 -17 -16 -13 -17 -12 -4 4 13
16 21 21 21 13z m-3151 -114 c2 -79 -24 -340 -40 -402 -7 -28 -8 -23 -4 26 2
34 7 131 10 215 7 192 14 266 25 250 4 -7 8 -47 9 -89z m2577 70 c-14 -15 -14
-18 7 -42 l22 -25 -26 23 c-14 12 -28 20 -31 16 -3 -3 -9 0 -13 6 -4 6 -1 9 7
8 7 -2 12 3 11 10 -2 6 3 11 10 10 6 -2 11 3 9 10 -1 8 2 11 9 7 8 -5 6 -12
-5 -23z m-3096 -17 c-5 -6 -6 -16 -2 -20 4 -5 1 -5 -6 -1 -9 6 -10 12 -3 20 7
9 7 17 -2 26 -10 12 -9 12 6 1 12 -10 14 -17 7 -26z m2940 -9 c0 -2 -8 -10
-17 -17 -16 -13 -17 -12 -4 4 13 16 21 21 21 13z m-2949 -33 c13 -16 12 -17
-3 -4 -17 13 -22 21 -14 21 2 0 10 -8 17 -17z m3093 8 c3 -5 -1 -14 -8 -20
-10 -9 -16 -9 -21 -1 -4 6 -1 9 7 8 7 -2 12 3 11 10 -3 14 3 16 11 3z m-3137
-26 c0 -8 -4 -12 -9 -9 -5 3 -6 10 -3 15 9 13 12 11 12 -6z m34 -2 c13 -16 12
-17 -3 -4 -17 13 -22 21 -14 21 2 0 10 -8 17 -17z m3134 -2 c-9 -8 -36 -10
-30 -2 2 4 11 8 20 8 8 0 13 -3 10 -6z m22 -8 c-4 -3 -1 -13 6 -22 11 -14 10
-14 -5 -2 -16 12 -16 31 -1 31 4 0 3 -3 0 -7z m-12 -33 c32 -27 36 -46 14 -74
l-21 -27 -15 28 c-8 15 -16 33 -17 38 -1 6 -6 17 -11 25 -5 9 0 8 13 -4 25
-22 30 -11 6 15 -13 15 -14 17 -1 15 8 -1 22 -8 32 -16z m-3160 -30 c10 -11
16 -20 13 -20 -3 0 -13 9 -23 20 -10 11 -16 20 -13 20 3 0 13 -9 23 -20z m152
-24 c-3 -7 0 -19 6 -25 8 -8 8 -14 -2 -23 -10 -11 -11 -10 -6 3 4 10 2 20 -4
23 -10 6 -5 36 6 36 3 0 3 -6 0 -14z m2839 -22 c1 -9 -1 -13 -4 -9 -4 4 -7 10
-7 13 0 4 -4 14 -9 22 -7 12 -6 13 4 3 8 -7 15 -20 16 -29z m29 27 c3 -5 2
-12 -3 -15 -5 -3 -9 1 -9 9 0 17 3 19 12 6z m-3050 -10 c3 -5 2 -12 -3 -15 -5
-3 -9 1 -9 9 0 17 3 19 12 6z m29 0 c3 -5 -2 -15 -12 -22 -15 -12 -16 -12 -5
2 7 9 10 19 6 22 -3 4 -4 7 0 7 3 0 8 -4 11 -9z m149 -76 c-3 -9 -8 -14 -10
-11 -3 3 -2 9 2 15 9 16 15 13 8 -4z m2908 -12 c13 -16 12 -17 -3 -4 -10 7
-18 15 -18 17 0 8 8 3 21 -13z m-2935 -19 c1 -9 0 -13 -4 -10 -3 4 -7 14 -8
22 -1 9 0 13 4 10 3 -4 7 -14 8 -22z m-151 -3 c-2 -9 -4 -18 -5 -21 -1 -3 -2
-9 -1 -13 1 -5 -3 -6 -9 -2 -8 5 -8 11 -1 19 7 8 7 16 0 23 -6 6 -5 10 5 10 7
0 12 -7 11 -16z m3080 0 c3 -5 2 -12 -3 -15 -5 -3 -9 1 -9 9 0 17 3 19 12 6z
m26 -38 c13 -16 12 -17 -3 -4 -17 13 -22 21 -14 21 2 0 10 -8 17 -17z m-35
-18 c1 -8 -1 -17 -5 -19 -4 -3 -7 6 -7 19 0 25 8 25 12 0z m-2960 -7 c4 -7 3
-8 -4 -4 -7 4 -12 2 -12 -5 0 -7 -3 -10 -6 -6 -6 5 3 27 11 27 2 0 7 -5 11
-12z m2995 -5 c13 -16 12 -17 -3 -4 -17 13 -22 21 -14 21 2 0 10 -8 17 -17z
m-3146 -34 c-9 -16 -18 -29 -21 -29 -2 0 2 13 10 29 9 16 12 32 8 36 -4 5 -1
5 5 1 10 -6 10 -14 -2 -37z m3160 -8 c3 -5 1 -13 -5 -16 -6 -4 -9 -2 -8 4 2 5
-6 17 -17 26 -20 16 -20 16 2 5 12 -5 24 -14 28 -19z m-3042 -1 c-3 -12 -8
-19 -11 -16 -5 6 5 36 12 36 2 0 2 -9 -1 -20z m3092 -30 l20 -25 -22 19 c-13
11 -23 24 -23 29 0 6 1 8 3 6 1 -2 11 -15 22 -29z m-38 -5 c0 -8 -4 -12 -9 -9
-5 3 -6 10 -3 15 9 13 12 11 12 -6z m48 -55 c10 -11 16 -20 13 -20 -3 0 -13 9
-23 20 -10 11 -16 20 -13 20 3 0 13 -9 23 -20z m65 -65 c0 -4 -9 4 -20 18 -11
14 -20 28 -20 32 0 4 9 -4 20 -18 11 -14 20 -28 20 -32z m-3350 -672 c-5 -10
-23 -49 -40 -88 -17 -38 -35 -79 -40 -90 -5 -11 -35 -83 -66 -160 -88 -219
-100 -216 -18 5 78 212 145 350 171 350 2 0 -1 -8 -7 -17z m2918 -444 c-3 -8
-7 -3 -11 10 -4 17 -3 21 5 13 5 -5 8 -16 6 -23z"/>
<path d="M5595 7888 c39 -25 72 -43 74 -42 8 6 -13 25 -52 48 -76 44 -93 39
-22 -6z"/>
<path d="M4114 7768 l-19 -23 23 19 c21 18 27 26 19 26 -2 0 -12 -10 -23 -22z"/>
<path d="M4108 7666 c-57 -50 -153 -151 -186 -198 -7 -10 -17 -16 -22 -13 -4
3 -10 -3 -13 -13 -2 -9 -8 -26 -13 -37 -4 -11 13 7 39 40 50 66 232 250 247
250 5 0 15 6 22 13 8 8 8 12 1 12 -6 0 -40 -24 -75 -54z"/>
<path d="M3996 7626 c-14 -19 -31 -46 -37 -60 -7 -14 -16 -26 -20 -26 -4 0
-10 -7 -13 -16 -11 -29 14 -3 51 54 20 31 41 63 46 70 5 6 7 12 4 12 -2 0 -16
-15 -31 -34z"/>
<path d="M3906 7483 c-6 -14 -5 -15 5 -6 7 7 10 15 7 18 -3 3 -9 -2 -12 -12z"/>
<path d="M4167 7447 c-3 -8 1 -14 8 -14 7 0 11 6 8 14 -3 7 -6 13 -8 13 -2 0
-5 -6 -8 -13z"/>
<path d="M5820 7363 c0 -10 4 -24 9 -32 13 -21 24 5 11 29 -13 25 -20 26 -20
3z"/>
<path d="M5283 7363 c9 -2 25 -2 35 0 9 3 1 5 -18 5 -19 0 -27 -2 -17 -5z"/>
<path d="M5355 7350 c27 -12 43 -12 25 0 -8 5 -22 9 -30 9 -10 0 -8 -3 5 -9z"/>
<path d="M5436 7331 c14 -15 87 -44 80 -32 -7 11 -64 41 -80 41 -6 0 -6 -3 0
-9z"/>
<path d="M4790 7285 c0 -3 15 -34 33 -68 18 -34 38 -75 45 -91 12 -27 12 -28
-4 -15 -10 8 0 -12 21 -43 37 -57 56 -77 35 -38 -9 16 -49 138 -50 149 0 2 7
-3 16 -10 9 -7 -5 17 -32 53 -43 60 -64 80 -64 63z"/>
<path d="M3754 7222 c5 -7 13 -30 17 -50 7 -37 7 -37 8 -6 0 18 -7 40 -16 51
-10 10 -14 13 -9 5z"/>
<path d="M3641 7184 c0 -11 3 -14 6 -6 3 7 2 16 -1 19 -3 4 -6 -2 -5 -13z"/>
<path d="M4651 7142 c24 -16 50 -36 58 -45 13 -16 31 -15 31 2 0 8 -111 71
-126 71 -4 0 12 -13 37 -28z"/>
<path d="M3770 7096 c0 -19 3 -37 8 -40 4 -2 6 13 4 35 -5 48 -12 51 -12 5z"/>
<path d="M3647 7095 c-6 -15 10 -32 20 -21 4 3 1 6 -5 6 -6 0 -9 7 -6 15 4 8
4 15 1 15 -3 0 -7 -7 -10 -15z"/>
<path d="M3528 7043 c7 -3 16 -2 19 1 4 3 -2 6 -13 5 -11 0 -14 -3 -6 -6z"/>
<path d="M3481 7025 c-11 -50 -11 -59 0 -48 6 6 9 21 6 34 -2 13 -5 20 -6 14z"/>
<path d="M3457 6950 c6 -36 24 -51 21 -18 -1 15 -5 25 -9 22 -4 -2 -9 1 -12 8
-2 7 -2 2 0 -12z"/>
<path d="M5050 6976 c0 -2 8 -10 18 -17 15 -13 16 -12 3 4 -13 16 -21 21 -21
13z"/>
<path d="M3581 6904 c0 -11 3 -14 6 -6 3 7 2 16 -1 19 -3 4 -6 -2 -5 -13z"/>
<path d="M3395 6861 c5 -34 12 -48 19 -40 2 2 -3 20 -10 39 l-14 35 5 -34z"/>
<path d="M5170 6748 c0 -31 14 -58 28 -58 12 0 13 3 4 12 -7 7 -12 20 -12 29
0 10 -4 21 -10 24 -5 3 -10 0 -10 -7z"/>
<path d="M4977 6496 c-8 -20 19 -21 53 -1 29 17 19 20 -12 4 -15 -8 -22 -8
-28 1 -5 8 -9 7 -13 -4z"/>
<path d="M3401 6394 c6 -7 16 -11 21 -8 11 7 3 17 -18 20 -12 2 -13 -1 -3 -12z"/>
<path d="M2665 5950 c-3 -6 1 -7 9 -4 18 7 21 14 7 14 -6 0 -13 -4 -16 -10z"/>
<path d="M2391 5664 c0 -11 3 -14 6 -6 3 7 2 16 -1 19 -3 4 -6 -2 -5 -13z"/>
<path d="M2376 5625 c-3 -9 -6 -22 -5 -28 0 -7 5 -1 10 12 5 13 8 26 5 28 -2
2 -6 -3 -10 -12z"/>
<path d="M2652 5615 c4 -4 0 -21 -8 -37 -9 -16 -13 -36 -10 -44 3 -8 1 -14 -4
-14 -6 0 -9 -3 -8 -7 1 -5 -1 -21 -5 -38 -9 -37 -16 -68 -27 -120 -24 -107
-28 -131 -36 -205 -3 -36 -8 -69 -11 -73 -3 -4 1 -15 9 -24 9 -12 9 -15 1 -9
-9 5 -13 0 -14 -16 0 -13 -2 -32 -5 -43 -2 -11 -6 -76 -8 -145 -2 -69 -2 -111
1 -95 2 17 7 37 10 45 3 8 7 37 8 63 1 26 5 50 8 53 3 4 1 18 -4 32 -8 21 -7
23 4 14 11 -9 13 -8 12 6 0 9 -5 24 -10 31 -5 10 -4 12 3 7 7 -4 12 -4 13 1 5
47 8 75 13 117 4 32 2 54 -6 64 -9 11 -9 14 -1 9 12 -7 30 30 19 40 -3 3 -1
14 5 25 8 14 7 24 -3 36 -9 11 -10 14 0 8 6 -4 12 -3 12 1 0 5 -6 15 -12 22
-8 9 -8 11 -2 8 17 -9 25 18 11 33 -9 10 -9 11 0 6 9 -5 13 0 13 16 0 24 7 73
10 73 3 0 10 45 12 77 1 15 6 24 11 21 6 -3 7 -1 3 5 -4 6 -2 20 4 31 7 15 7
22 -2 27 -7 4 -10 4 -6 -1z m-57 -344 c3 -5 2 -12 -3 -15 -5 -3 -9 1 -9 9 0
17 3 19 12 6z m-9 -57 c1 -9 0 -13 -4 -10 -3 4 -7 14 -8 22 -1 9 0 13 4 10 3
-4 7 -14 8 -22z m-10 -99 c1 -8 -1 -17 -5 -19 -4 -3 -7 6 -7 19 0 25 8 25 12
0z"/>
<path d="M2358 5565 c-3 -11 -9 -29 -13 -40 -3 -11 1 -7 10 8 9 16 15 33 12
40 -2 6 -6 3 -9 -8z"/>
<path d="M2321 5454 c0 -11 3 -14 6 -6 3 7 2 16 -1 19 -3 4 -6 -2 -5 -13z"/>
<path d="M2720 5450 c-12 -8 -11 -10 8 -10 12 0 22 5 22 10 0 13 -11 13 -30 0z"/>
<path d="M2733 5363 c9 -2 23 -2 30 0 6 3 -1 5 -18 5 -16 0 -22 -2 -12 -5z"/>
<path d="M2266 5284 c-4 -14 -5 -28 -3 -31 3 -2 8 8 11 23 4 14 5 28 3 31 -3
2 -8 -8 -11 -23z"/>
<path d="M2237 5188 c-9 -28 -12 -47 -8 -42 11 12 34 84 29 89 -2 3 -12 -18
-21 -47z"/>
<path d="M2748 5198 c2 -11 9 -15 16 -10 6 4 49 12 96 18 l85 12 -101 -2 c-90
-1 -100 -3 -96 -18z"/>
<path d="M2825 5140 c-30 -8 -30 -8 8 -9 23 -1 36 3 32 9 -3 6 -7 9 -8 9 -1
-1 -15 -5 -32 -9z"/>
<path d="M2905 5141 c-3 -6 4 -8 16 -6 30 6 37 15 11 15 -11 0 -23 -4 -27 -9z"/>
<path d="M2765 5130 c3 -5 10 -10 16 -10 5 0 9 5 9 10 0 6 -7 10 -16 10 -8 0
-12 -4 -9 -10z"/>
<path d="M2206 5079 c-9 -29 -16 -57 -15 -63 0 -6 9 16 20 49 10 32 16 61 14
63 -2 2 -11 -20 -19 -49z"/>
<path d="M2853 5073 c-7 -3 -13 -8 -13 -12 0 -10 39 -11 45 -1 6 10 -16 19
-32 13z"/>
<path d="M2181 4993 c0 -6 -4 -20 -7 -30 -5 -14 -4 -15 5 -7 7 7 11 20 8 30
-3 11 -5 14 -6 7z"/>
<path d="M2126 4814 c-4 -14 -5 -28 -3 -31 3 -2 8 8 11 23 4 14 5 28 3 31 -3
2 -8 -8 -11 -23z"/>
<path d="M2071 4594 c0 -11 3 -14 6 -6 3 7 2 16 -1 19 -3 4 -6 -2 -5 -13z"/>
<path d="M2051 4514 c0 -11 3 -14 6 -6 3 7 2 16 -1 19 -3 4 -6 -2 -5 -13z"/>
<path d="M1991 4204 c0 -11 3 -14 6 -6 3 7 2 16 -1 19 -3 4 -6 -2 -5 -13z"/>
<path d="M1734 4115 c0 -49 1 -71 3 -48 2 23 2 64 0 90 -2 26 -3 8 -3 -42z"/>
<path d="M1981 4154 c0 -11 3 -14 6 -6 3 7 2 16 -1 19 -3 4 -6 -2 -5 -13z"/>
<path d="M1963 3930 c0 -25 2 -35 4 -22 2 12 2 32 0 45 -2 12 -4 2 -4 -23z"/>
<path d="M1705 3610 c3 -5 8 -10 11 -10 2 0 4 5 4 10 0 6 -5 10 -11 10 -5 0
-7 -4 -4 -10z"/>
<path d="M1696 3535 c4 -8 11 -15 16 -15 6 0 5 6 -2 15 -7 8 -14 15 -16 15 -2
0 -1 -7 2 -15z"/>
<path d="M1894 3426 c1 -8 5 -18 8 -22 4 -3 5 1 4 10 -1 8 -5 18 -8 22 -4 3
-5 -1 -4 -10z"/>
<path d="M1923 3395 c0 -8 4 -12 9 -9 5 3 6 10 3 15 -9 13 -12 11 -12 -6z"/>
<path d="M1710 3329 c0 -15 18 -19 23 -6 3 8 -1 14 -9 14 -8 0 -14 -4 -14 -8z"/>
<path d="M1742 3231 c7 -9 13 -18 15 -20 1 -2 1 5 0 16 0 11 -7 20 -14 20 -10
0 -10 -4 -1 -16z"/>
<path d="M1757 3024 c-4 -4 -3 -12 0 -18 4 -6 8 -17 10 -26 5 -33 49 -148 65
-171 l17 -24 -8 30 c-5 17 -14 42 -20 58 -6 15 -8 27 -5 27 4 0 1 7 -6 15 -7
8 -9 15 -5 15 4 0 2 7 -5 15 -7 8 -9 15 -5 15 4 0 2 7 -5 15 -6 8 -9 18 -6 23
7 12 -18 35 -27 26z"/>
<path d="M6510 6995 c0 -2 6 -8 13 -14 10 -8 14 -7 14 2 0 8 -6 14 -14 14 -7
0 -13 -1 -13 -2z"/>
<path d="M5931 6594 c0 -11 3 -14 6 -6 3 7 2 16 -1 19 -3 4 -6 -2 -5 -13z"/>
<path d="M5921 6544 c0 -11 3 -14 6 -6 3 7 2 16 -1 19 -3 4 -6 -2 -5 -13z"/>
<path d="M4446 6428 c3 -5 10 -6 15 -3 13 9 11 12 -6 12 -8 0 -12 -4 -9 -9z"/>
<path d="M4475 6409 c-4 -6 -5 -12 -2 -15 2 -3 7 2 10 11 7 17 1 20 -8 4z"/>
<path d="M6638 6253 c5 -21 7 -23 10 -9 2 10 0 22 -6 28 -6 6 -7 0 -4 -19z"/>
<path d="M4422 6210 c0 -14 2 -19 5 -12 2 6 2 18 0 25 -3 6 -5 1 -5 -13z"/>
<path d="M5050 6226 c0 -2 8 -10 18 -17 15 -13 16 -12 3 4 -13 16 -21 21 -21
13z"/>
<path d="M5080 6183 c0 -4 5 -15 10 -23 8 -13 10 -13 10 2 0 9 -4 20 -10 23
-5 3 -10 3 -10 -2z"/>
<path d="M4418 6145 c-12 -24 -14 -35 -5 -44 9 -9 8 -16 -1 -31 -7 -12 -8 -20
-2 -20 5 0 10 -7 10 -16 0 -8 -4 -12 -10 -9 -5 3 -10 -2 -10 -12 0 -10 -7 -27
-15 -37 -8 -11 -15 -25 -15 -30 1 -6 8 2 16 18 12 21 18 25 24 15 9 -14 14 1
24 77 5 33 2 43 -10 48 -15 6 -15 8 1 32 9 14 15 29 13 34 -2 4 -11 -7 -20
-25z"/>
<path d="M5200 6111 c0 -5 5 -13 10 -16 6 -3 10 -2 10 4 0 5 -4 13 -10 16 -5
3 -10 2 -10 -4z"/>
<path d="M5881 6104 c0 -11 3 -14 6 -6 3 7 2 16 -1 19 -3 4 -6 -2 -5 -13z"/>
<path d="M5560 6101 c0 -5 5 -13 10 -16 6 -3 10 -2 10 4 0 5 -4 13 -10 16 -5
3 -10 2 -10 -4z"/>
<path d="M5210 6035 c0 -13 10 -26 38 -49 23 -20 23 -20 16 0 -7 17 -6 18 12
4 17 -14 18 -14 6 2 -8 9 -19 15 -27 12 -7 -3 -20 5 -29 18 -9 12 -16 18 -16
13z"/>
<path d="M4164 5994 c-18 -14 -18 -14 6 -3 31 14 36 19 24 19 -6 0 -19 -7 -30
-16z"/>
<path d="M4311 6000 c0 -8 4 -24 9 -35 5 -13 9 -14 9 -5 0 8 -4 24 -9 35 -5
13 -9 14 -9 5z"/>
<path d="M5881 5994 c0 -11 3 -14 6 -6 3 7 2 16 -1 19 -3 4 -6 -2 -5 -13z"/>
<path d="M4692 5970 c0 -14 2 -19 5 -12 2 6 2 18 0 25 -3 6 -5 1 -5 -13z"/>
<path d="M5030 5961 c0 -6 5 -13 10 -16 6 -3 10 1 10 9 0 9 -4 16 -10 16 -5 0
-10 -4 -10 -9z"/>
<path d="M4386 5914 c-4 -9 -4 -19 -1 -22 2 -3 7 3 11 12 4 9 4 19 1 22 -2 3
-7 -3 -11 -12z"/>
<path d="M4356 5885 c-9 -26 -7 -32 5 -12 6 10 9 21 6 23 -2 3 -7 -2 -11 -11z"/>
<path d="M5995 5856 c10 -14 19 -26 22 -26 7 0 -17 39 -28 46 -6 3 -3 -5 6
-20z"/>
<path d="M4336 5825 c-9 -9 -16 -21 -16 -28 0 -6 7 -2 15 9 13 16 16 17 25 4
12 -18 13 -1 1 18 -6 11 -11 10 -25 -3z"/>
<path d="M6572 5795 c0 -16 2 -22 5 -12 2 9 2 23 0 30 -3 6 -5 -1 -5 -18z"/>
<path d="M6582 5740 c0 -14 2 -19 5 -12 2 6 2 18 0 25 -3 6 -5 1 -5 -13z"/>
<path d="M5437 5669 c7 -7 15 -10 18 -7 3 3 -2 9 -12 12 -14 6 -15 5 -6 -5z"/>
<path d="M6601 5642 c-2 -31 118 -607 125 -600 2 2 -21 123 -51 268 -60 295
-73 351 -74 332z"/>
<path d="M5140 5586 c0 -8 4 -17 9 -20 5 -4 7 3 4 14 -6 23 -13 26 -13 6z"/>
<path d="M6251 5430 c-1 -14 -4 -36 -6 -50 l-6 -25 11 25 c6 13 9 36 7 50 l-4
25 -2 -25z"/>
<path d="M4130 5241 c0 -6 4 -13 10 -16 6 -3 7 1 4 9 -7 18 -14 21 -14 7z"/>
<path d="M4449 5226 c27 -29 33 -32 25 -13 -2 7 -14 19 -27 26 -21 13 -21 12
2 -13z"/>
<path d="M6891 5230 c0 -8 4 -22 9 -30 12 -18 12 -2 0 25 -6 13 -9 15 -9 5z"/>
<path d="M6938 5083 c5 -21 7 -23 10 -9 2 10 0 22 -6 28 -6 6 -7 0 -4 -19z"/>
<path d="M4855 5020 c-4 -6 -11 -8 -16 -5 -5 4 -9 1 -9 -5 0 -6 -4 -9 -9 -6
-5 3 -15 -2 -22 -12 -13 -15 -12 -16 4 -3 9 7 17 11 17 7 0 -4 14 0 30 9 30
16 38 25 21 25 -6 0 -13 -5 -16 -10z"/>
<path d="M6732 5010 c0 -14 2 -19 5 -12 2 6 2 18 0 25 -3 6 -5 1 -5 -13z"/>
<path d="M6961 5013 c-1 -16 47 -164 59 -183 5 -8 10 -13 10 -10 0 12 -69 204
-69 193z"/>
<path d="M6746 4940 c4 -19 11 -44 15 -55 6 -14 7 -9 3 15 -4 19 -11 44 -15
55 -6 14 -7 9 -3 -15z"/>
<path d="M6770 4839 c3 -25 39 -149 39 -134 1 23 -25 124 -33 133 -3 3 -6 3
-6 1z"/>
<path d="M4814 4806 c11 -9 27 -16 35 -15 14 0 14 1 1 6 -8 3 -24 10 -35 15
-20 9 -20 9 -1 -6z"/>
<path d="M7055 4723 c60 -161 84 -218 84 -206 1 6 -15 53 -35 105 -20 51 -42
114 -50 141 -8 26 -19 47 -23 47 -5 0 6 -39 24 -87z"/>
<path d="M4918 4773 c7 -3 16 -2 19 1 4 3 -2 6 -13 5 -11 0 -14 -3 -6 -6z"/>
<path d="M6811 4661 c-2 -21 33 -197 36 -181 1 8 -6 56 -16 105 -10 50 -19 84
-20 76z"/>
<path d="M7142 4485 c0 -5 6 -26 13 -45 7 -19 14 -28 14 -20 0 8 -6 29 -14 45
-7 17 -13 26 -13 20z"/>
<path d="M6851 4414 c0 -11 3 -14 6 -6 3 7 2 16 -1 19 -3 4 -6 -2 -5 -13z"/>
<path d="M7177 4369 c4 -13 8 -18 11 -10 2 7 -1 18 -6 23 -8 8 -9 4 -5 -13z"/>
<path d="M6861 4354 c0 -11 3 -14 6 -6 3 7 2 16 -1 19 -3 4 -6 -2 -5 -13z"/>
<path d="M6872 4310 c0 -14 2 -19 5 -12 2 6 2 18 0 25 -3 6 -5 1 -5 -13z"/>
<path d="M4259 4063 c-13 -16 -12 -17 4 -4 16 13 21 21 13 21 -2 0 -10 -8 -17
-17z"/>
<path d="M7251 4044 c0 -11 3 -14 6 -6 3 7 2 16 -1 19 -3 4 -6 -2 -5 -13z"/>
<path d="M7262 4000 c0 -14 4 -36 8 -50 6 -20 8 -21 8 -5 0 11 -4 34 -8 50 -7
27 -8 27 -8 5z"/>
<path d="M6962 3815 c0 -16 2 -22 5 -12 2 9 2 23 0 30 -3 6 -5 -1 -5 -18z"/>
<path d="M4953 3798 c-11 -19 -12 -37 -3 -43 5 -3 7 3 5 12 -1 10 2 24 8 31 5
6 7 12 4 12 -3 0 -9 -6 -14 -12z"/>
<path d="M5000 3786 c0 -2 8 -10 18 -17 15 -13 16 -12 3 4 -13 16 -21 21 -21
13z"/>
<path d="M5035 3750 c-3 -6 1 -7 9 -4 18 7 21 14 7 14 -6 0 -13 -4 -16 -10z"/>
<path d="M5056 3723 c-6 -14 -5 -15 5 -6 7 7 10 15 7 18 -3 3 -9 -2 -12 -12z"/>
<path d="M4985 3660 c2 -27 10 -33 12 -10 1 11 -2 22 -6 24 -4 3 -7 -4 -6 -14z"/>
<path d="M5763 3625 c0 -8 4 -12 9 -9 5 3 6 10 3 15 -9 13 -12 11 -12 -6z"/>
<path d="M7218 3426 c4 -6 7 -14 7 -18 0 -5 3 -8 8 -8 4 0 10 0 13 0 4 0 1 6
-5 13 -6 8 -9 16 -6 19 3 2 -2 5 -10 5 -8 0 -11 -5 -7 -11z"/>
<path d="M6926 3244 c-3 -8 -10 -13 -15 -9 -5 3 -12 1 -16 -4 -3 -5 -15 -8
-26 -6 -17 4 -19 2 -8 -11 10 -13 14 -13 29 1 12 11 19 12 28 3 7 -7 12 -10
13 -7 0 2 2 14 5 27 5 25 -1 29 -10 6z"/>
<path d="M5814 3091 c11 -11 23 -21 28 -21 14 0 -1 19 -25 31 -22 12 -22 12
-3 -10z"/>
<path d="M7320 3064 c0 -8 5 -12 10 -9 6 4 8 11 5 16 -9 14 -15 11 -15 -7z"/>
<path d="M6536 6922 c-6 -10 -2 -39 7 -48 3 -4 5 7 4 25 -2 33 -3 35 -11 23z"/>
<path d="M6555 6708 c11 -71 13 -79 19 -85 4 -4 4 11 1 32 -3 22 -6 48 -6 57
0 10 -4 20 -9 23 -6 4 -8 -8 -5 -27z"/>
<path d="M6576 6582 c-2 -4 -1 -14 4 -22 7 -11 9 -9 7 8 -1 24 -3 26 -11 14z"/>
<path d="M3316 6302 c-34 -68 -36 -81 -8 -76 6 1 17 2 24 3 7 1 5 8 -6 20 -9
10 -14 25 -10 35 6 15 7 15 19 -1 11 -15 13 -13 10 17 -2 19 2 41 7 48 6 7 8
15 5 18 -3 3 -22 -26 -41 -64z m-3 -55 c3 -8 -1 -14 -8 -14 -7 0 -11 6 -8 14
3 7 6 13 8 13 2 0 5 -6 8 -13z"/>
<path d="M2720 4236 c0 -2 8 -10 18 -17 15 -13 16 -12 3 4 -13 16 -21 21 -21
13z"/>
<path d="M5210 4221 c0 -6 4 -13 10 -16 6 -3 7 1 4 9 -7 18 -14 21 -14 7z"/>
<path d="M3060 3485 c0 -4 65 -133 78 -154 1 -2 5 -2 8 1 3 4 -13 40 -36 82
-38 69 -50 86 -50 71z"/>
<path d="M3550 3186 c0 -2 8 -10 18 -17 15 -13 16 -12 3 4 -13 16 -21 21 -21
13z"/>
<path d="M3570 3126 c0 -2 8 -10 18 -17 15 -13 16 -12 3 4 -13 16 -21 21 -21
13z"/>
<path d="M4815 3018 c3 -8 0 -15 -7 -16 -7 0 -38 -9 -68 -19 -44 -14 -55 -22
-52 -37 2 -10 -2 -22 -10 -27 -10 -7 -9 -9 4 -9 10 0 18 9 20 22 2 19 18 28
88 51 82 27 120 47 90 47 -8 0 -22 -4 -30 -10 -9 -5 -19 -5 -27 2 -10 8 -12 7
-8 -4z"/>
<path d="M4380 2966 c0 -2 8 -10 18 -17 15 -13 16 -12 3 4 -13 16 -21 21 -21
13z"/>
<path d="M3810 2916 c0 -2 11 -6 25 -8 13 -3 22 -1 19 3 -5 9 -44 13 -44 5z"/>
<path d="M4080 2870 c20 -13 33 -13 25 0 -3 6 -14 10 -23 10 -15 0 -15 -2 -2
-10z"/>
<path d="M4120 2856 c0 -2 7 -7 16 -10 8 -3 12 -2 9 4 -6 10 -25 14 -25 6z"/>
<path d="M2989 2463 c-13 -16 -12 -17 4 -4 16 13 21 21 13 21 -2 0 -10 -8 -17
-17z"/>
<path d="M4299 2433 c-13 -16 -12 -17 4 -4 9 7 17 15 17 17 0 8 -8 3 -21 -13z"/>
<path d="M2923 2405 c0 -21 2 -23 14 -14 8 7 10 15 6 18 -4 4 -11 10 -14 14
-4 4 -6 -4 -6 -18z"/>
<path d="M1937 3171 c-3 -13 -10 -20 -16 -16 -6 3 -11 2 -11 -4 0 -5 5 -13 10
-16 6 -4 10 -12 9 -18 -1 -7 -1 -20 0 -31 1 -15 4 -16 16 -6 8 7 15 18 14 24
-3 23 1 37 9 32 5 -3 9 1 9 9 0 8 -4 12 -9 9 -4 -3 -12 5 -16 17 l-9 23 -6
-23z m19 -23 c5 -7 3 -8 -6 -3 -10 6 -12 4 -6 -11 5 -14 4 -16 -5 -7 -6 6 -8
16 -5 22 9 14 13 14 22 -1z"/>
<path d="M5968 2058 c15 -19 7 -42 -11 -31 -7 4 -5 -4 4 -17 17 -25 36 -26 31
-1 -2 8 1 10 8 6 19 -11 -5 29 -27 46 -16 13 -17 12 -5 -3z m18 -48 c0 -12 -4
-16 -9 -11 -5 5 -6 14 -3 20 10 15 12 14 12 -9z"/>
</g>
</svg>
